<?xml version="1.0" encoding="utf-8"?>
<!-- Generator: Adobe Illustrator 21.1.0, SVG Export Plug-In . SVG Version: 6.00 Build 0)  -->
<svg version="1.1" id="Layer_1" xmlns="http://www.w3.org/2000/svg" xmlns:xlink="http://www.w3.org/1999/xlink" x="0px" y="0px"
	 viewBox="0 0 13.6 13" style="enable-background:new 0 0 13.6 13;" xml:space="preserve">
	 <style>
	 svg#Layer_1 {fill: #FFFFFF}
	 </style>
<g>
	<path d="M13.5,4.9c-0.1-0.4-0.4-0.6-0.8-0.7L9.2,3.7L7.7,0.6C7.5,0.2,7.2,0,6.8,0c0,0,0,0,0,0C6.4,0,6.1,0.2,5.9,0.6L4.3,3.7
		L0.8,4.2C0.5,4.3,0.2,4.5,0,4.9c-0.1,0.4,0,0.7,0.2,1l2.5,2.5l-0.6,3.5c-0.1,0.4,0.1,0.7,0.4,1c0.3,0.2,0.7,0.3,1,0.1l3.1-1.6
		l3.1,1.6c0.1,0.1,0.3,0.1,0.5,0.1c0.2,0,0.4-0.1,0.6-0.2c0.3-0.2,0.5-0.6,0.4-1l-0.6-3.5l2.5-2.5C13.5,5.6,13.6,5.3,13.5,4.9z
		 M10,7.7C9.8,7.9,9.7,8.2,9.8,8.5l0.6,3.5l-3.1-1.6c-0.3-0.1-0.6-0.1-0.9,0L3.2,12l0.6-3.5c0.1-0.3-0.1-0.6-0.3-0.9L1,5.2l3.5-0.5
		c0.3,0,0.6-0.2,0.7-0.5L6.8,1l0,0l1.6,3.2c0.1,0.3,0.4,0.5,0.7,0.5l3.5,0.5L10,7.7z"/>
	<path d="M6.8,6.4c-0.1,0-0.1,0-0.2,0c-0.1,0-0.1,0-0.2,0C6.3,6.5,6.1,6.6,6,6.6l0.1-1.2c0.3,0.1,0.6,0.1,0.8,0.1
		c0.2,0,0.4,0,0.5-0.1c0.2-0.1,0.3-0.2,0.4-0.3C7.9,5.1,8,5,8,4.9c0,0,0,0,0,0s0,0,0,0c0,0,0,0-0.1,0C7.8,4.9,7.7,5,7.6,5L7.5,5
		c0,0,0,0-0.1,0c0,0,0,0,0,0l-0.2,0C7,5.1,6.8,5,6.6,5C6.4,5,6.1,4.9,5.9,4.9l0,0.4l0,0.4l0,0.3L5.8,6.8L5.7,6.9
		C5.6,7,5.6,7,5.6,7.1c0,0.1,0,0.1,0,0.1c0,0,0.1,0,0.1,0c0.1,0,0.1,0,0.1-0.1c0,0,0.1-0.1,0.1-0.3c0.1-0.1,0.2-0.2,0.4-0.2
		s0.2-0.1,0.4-0.1c0.3,0,0.5,0.1,0.7,0.3s0.3,0.5,0.3,0.9c0,0.4-0.1,0.7-0.2,0.9S7,9,6.6,9C6.5,9,6.4,9,6.2,9C6.1,8.9,6,8.8,5.9,8.8
		C5.9,8.7,5.9,8.6,5.9,8.6c0,0,0-0.1,0.1-0.1c0.1,0,0.2-0.1,0.2-0.1c0,0,0-0.1,0-0.2c0-0.1,0-0.2-0.1-0.3C6,7.8,6,7.7,5.9,7.7
		c-0.1,0-0.2,0-0.3,0.1C5.5,7.9,5.5,8.1,5.5,8.2c0,0.3,0.1,0.5,0.3,0.7c0.1,0.1,0.2,0.2,0.4,0.2c0.1,0,0.3,0.1,0.5,0.1
		c0.5,0,0.8-0.1,1.1-0.4c0.3-0.3,0.4-0.6,0.4-1.1c0-0.4-0.1-0.7-0.4-1C7.5,6.5,7.2,6.4,6.8,6.4z"/>
</g>
</svg>
