<?xml version="1.0" encoding="utf-8"?>
<!-- Generator: Adobe Illustrator 21.1.0, SVG Export Plug-In . SVG Version: 6.00 Build 0)  -->
<svg version="1.1" id="Layer_1" xmlns="http://www.w3.org/2000/svg" xmlns:xlink="http://www.w3.org/1999/xlink" x="0px" y="0px"
	 viewBox="0 0 104 90" style="enable-background:new 0 0 104 90;" xml:space="preserve">
	<style>
	 svg#Layer_1 {fill: #566f7b;}
	 </style>
<g>
	<path d="M31.5,47.3h4.9c0.1,0,0.2,0,0.4,0l0.4-0.1c0-3.3-0.2-6.6-0.4-9.7L31.5,47.3z"/>
	<path d="M68.5,47.3h4.9c0.1,0,0.2,0,0.4,0l0.4-0.1c0-3.3-0.2-6.6-0.4-9.7L68.5,47.3z"/>
	<path d="M78,0.2H26l-26,45l26,45h52l26-45L78,0.2z M39.8,57.2c-1.1-0.1-1.8-1.1-2-2.9c-0.1-0.7-0.2-1.5-0.3-2.5l-0.2-2.5
		c-0.4,0.3-0.8,0.4-1.4,0.4c-1.7,0.1-3.3,0.1-4.9,0.1c-0.6,0.3-1.1,0.8-1.4,1.4c-0.2,0.3-0.4,0.6-0.7,1.1l-0.5,1
		c-0.1,0.1-0.1,0.2-0.1,0.3c-0.3,0.6-0.4,1.1-0.5,1.5c-0.1,0.6-0.2,1.1,0,1.6c-0.9,0.3-1.9,0.5-2.8,0.5c-1,0-1.5-0.4-1.5-1.1
		c0-0.4,0.2-1,0.5-1.6c0.5-0.9,1.1-2,1.8-3.1l2-3.4l7.1-12l1-1.8c1.1-0.8,2.4-1.2,3.8-1c0.8,0.1,1.3,0.8,1.3,2.1l0,3.2
		c0,0.1,0,0.2,0,0.4l0.5,9.2c0.1,2,0.3,3.7,0.6,5c0.3,1.4,0.8,2.5,1.4,3C42.4,57,41.1,57.3,39.8,57.2z M76.8,57.2
		c-1.1-0.1-1.8-1.1-2-2.9c-0.1-0.7-0.2-1.5-0.3-2.5l-0.2-2.5c-0.4,0.3-0.8,0.4-1.4,0.4c-1.7,0.1-3.3,0.1-4.9,0.1
		c-0.6,0.3-1.1,0.8-1.4,1.4c-0.2,0.3-0.4,0.6-0.7,1.1l-0.5,1c-0.1,0.1-0.1,0.2-0.1,0.3c-0.3,0.6-0.4,1.1-0.5,1.5
		c-0.1,0.6-0.2,1.1,0,1.6c-0.9,0.3-1.9,0.5-2.8,0.5c-1,0-1.5-0.4-1.5-1.1c0-0.3,0.1-0.7,0.3-1.1c0,0,0,0,0,0
		c-1.2,1.3-2.4,1.9-3.4,1.9c-1.8,0-2.7-0.9-2.7-2.8c0-0.4,0.1-1,0.2-1.6l0.4-1.8c0.8-3.5,1.2-5.5,1.2-6c0-0.4-0.2-0.7-0.5-0.7
		c-0.4,0-0.9,0.4-1.6,1.2C53.7,46,53,47,52.2,48.2c-0.7,1.1-1.2,2.1-1.7,3.1c-0.2,0.5-0.5,1-0.7,1.7c-0.1,0.3-0.3,0.6-0.4,1
		l-0.5,1.2c-0.4,1.1-1.3,1.6-2.5,1.6c-0.5,0-1.3-0.1-2.3-0.2c0.6-1.6,1.2-3.3,1.8-5.1c0.5-1.8,1-3.5,1.2-5c0.2-1.3,0.4-2.4,0.4-3.3
		c0-0.8-0.1-1.5-0.3-2c1.2-0.6,2.3-0.8,3.2-0.8c1.1,0,1.6,0.5,1.6,1.4c0,0.5-0.1,1.3-0.3,2.3l-0.7,3.2c1-1.9,2.2-3.5,3.6-4.8
		c1.5-1.5,2.9-2.2,4.1-2.2c1.5,0,2.3,0.7,2.3,2.2c0,0.6-0.1,1.5-0.3,2.6c-0.2,0.9-0.4,2-0.7,3.3l-0.2,0.8c0,0.1-0.1,0.2-0.1,0.3
		c-0.1,0.4-0.2,0.8-0.3,1.1c-0.2,0.8-0.3,1.4-0.3,1.9c0,0.5,0.1,0.9,0.3,1.3c0.2,0,0.4-0.2,0.6-0.3c0.3-0.2,0.6-0.4,0.8-0.7
		c1-1,1.6-1.5,1.8-1.5c0.1,0,0.2,0.1,0.2,0.2c0,0.1,0,0.1,0,0.2c0-0.1,0.1-0.1,0.1-0.2l2-3.4l7.1-12l1-1.8c1.1-0.8,2.4-1.2,3.8-1
		c0.8,0.1,1.3,0.8,1.3,2.1l0,3.2c0,0.1,0,0.2,0,0.4l0.5,9.2c0.1,2,0.3,3.7,0.6,5c0.3,1.4,0.8,2.5,1.4,3C79.4,57,78.2,57.3,76.8,57.2
		z"/>
</g>
</svg>
