<?xml version="1.0" encoding="utf-8"?>
<!-- Generator: Adobe Illustrator 21.1.0, SVG Export Plug-In . SVG Version: 6.00 Build 0)  -->
<svg version="1.1" id="Layer_1" xmlns="http://www.w3.org/2000/svg" xmlns:xlink="http://www.w3.org/1999/xlink" x="0px" y="0px"
	 viewBox="0 0 13.4 13" style="enable-background:new 0 0 13.4 13;" xml:space="preserve">
	 <style>
	 svg#Layer_1 {fill: #FFFFFF}
	 </style>
<g>
	<path d="M12.7,2c-0.5-0.5-1.1-0.8-1.7-0.7l-5.8,0l-3.6,0c0,0,0,0,0,0C1.3,1.3,1,1.5,1,1.8c0,0.3,0.2,0.6,0.5,0.6l3.6,0c0,0,0,0,0,0
		c0,0,0,0,0,0l5.8,0c0.4,0,0.7,0.1,0.9,0.4c0.3,0.3,0.4,0.6,0.4,0.9v5.1c0,0.7-0.6,1.3-1.3,1.3H1.6c-0.3,0-0.6,0.2-0.6,0.6
		c0,0.3,0.2,0.6,0.6,0.6H11c1.3,0,2.4-1.1,2.4-2.4V3.7C13.4,3.1,13.2,2.5,12.7,2z"/>
	<path d="M4.5,8.2v0.2C4.5,8.7,4.7,9,5,9c0.3,0,0.6-0.2,0.6-0.6V8.2C5.6,7.6,6.1,7,6.7,7h2.6c0.6,0,1.1,0.5,1.1,1.1v0.2
		C10.4,8.7,10.7,9,11,9s0.6-0.2,0.6-0.6V8.2c0-1.2-1-2.2-2.2-2.2H8.9C9.5,5.6,9.8,5,9.8,4.4c0-1-0.8-1.8-1.8-1.8S6.2,3.4,6.2,4.4
		c0,0.7,0.4,1.2,0.9,1.6H6.7C5.5,5.9,4.5,6.9,4.5,8.2z M8,3.6c0.4,0,0.7,0.3,0.7,0.7c0,0.4-0.3,0.7-0.7,0.7S7.3,4.8,7.3,4.4
		C7.3,4,7.6,3.6,8,3.6z"/>
	<path d="M0.6,4.3h2.7c0.3,0,0.6-0.2,0.6-0.6S3.6,3.2,3.3,3.2H0.6C0.2,3.2,0,3.4,0,3.7S0.2,4.3,0.6,4.3z"/>
	<path d="M0.6,6.8h2.7c0.3,0,0.6-0.2,0.6-0.6S3.6,5.7,3.3,5.7H0.6C0.2,5.7,0,6,0,6.3S0.2,6.8,0.6,6.8z"/>
	<path d="M3.8,9c0-0.3-0.2-0.6-0.6-0.6H0.6C0.2,8.5,0,8.7,0,9s0.2,0.6,0.6,0.6h2.7C3.6,9.6,3.8,9.3,3.8,9z"/>
</g>
</svg>
