<?xml version="1.0" encoding="utf-8"?>
<!-- Generator: Adobe Illustrator 21.1.0, SVG Export Plug-In . SVG Version: 6.00 Build 0)  -->
<svg version="1.1" id="Layer_1" xmlns="http://www.w3.org/2000/svg" xmlns:xlink="http://www.w3.org/1999/xlink" x="0px" y="0px"
	 viewBox="0 0 98 90" style="enable-background:new 0 0 98 90;" xml:space="preserve">
	<style type="text/css">
		svg#Layer_1 {fill: #484848;}
	</style>
<path d="M89.9,70.2l-15.6-7.8c-1.5-0.7-2.4-2.2-2.4-3.9V53c0.4-0.5,0.8-1,1.2-1.6c2-2.9,3.7-6,4.8-9.5c2.3-1.1,3.8-3.3,3.8-5.9v-6.6
	c0-1.6-0.6-3.1-1.6-4.3v-8.7c0.1-0.9,0.5-6.3-3.4-10.7C73.3,1.9,67.8,0,60.4,0c-7.4,0-12.8,1.9-16.2,5.8c-2.3,2.7-3.1,5.7-3.4,7.9
	c-2.8-1.4-6.1-2.2-9.8-2.2c-17,0-18,14.5-18,14.7v7.5c-1.1,1.1-1.6,2.5-1.6,3.8v5.6c0,1.8,0.8,3.4,2.1,4.5c1.3,5.1,4.7,8.9,5.9,10.3
	v4.5c0,1.3-0.7,2.5-1.9,3.1L6.7,72.4C2.6,74.7,0,79,0,83.8V90h98v-6.6C98,77.8,94.9,72.7,89.9,70.2L89.9,70.2z M22.9,83.1v3.7H3.3
	v-2.9c0-3.5,1.9-6.8,5.1-8.6l10.9-6.8c2.2-1.2,3.5-3.5,3.5-6v-5.9l-0.5-0.5c0,0-4.4-4.1-5.7-9.7l-0.1-0.7l-0.6-0.4
	c-0.7-0.5-1.2-1.3-1.2-2.2v-5.6c0-0.6,0.4-1.3,1.1-1.9l0.5-0.5v-8.8c0-0.5,0.9-11.6,14.7-11.6c3.9,0,7.2,0.9,9.8,2.7v7.7
	c-1,1.2-1.6,2.7-1.6,4.3V36c0,0.5,0.1,1,0.2,1.5c0,0.2,0.1,0.4,0.2,0.6c0.1,0.3,0.2,0.6,0.3,0.8c0,0,0,0,0,0c0.4,0.9,1,1.6,1.8,2.3
	c0,0,0,0.1,0,0.1c0.1,0.4,0.2,0.8,0.3,1.1l0.1,0.4c0,0.1,0,0.2,0.1,0.2c0.1,0.2,0.1,0.4,0.2,0.5c0.1,0.3,0.2,0.6,0.3,0.9
	c0,0.1,0.1,0.3,0.2,0.4c0.1,0.3,0.3,0.7,0.4,1c0,0.1,0.1,0.2,0.1,0.2l0.1,0.2c0,0.1,0.1,0.2,0.1,0.3c0.2,0.4,0.3,0.7,0.5,1
	c0,0,0,0.1,0.1,0.2c0.1,0.2,0.2,0.4,0.3,0.6c0.2,0.3,0.4,0.7,0.5,1c0.1,0.1,0.2,0.3,0.2,0.4c0.2,0.4,0.5,0.8,0.7,1.1
	c0,0.1,0.1,0.2,0.1,0.2c0.4,0.6,0.7,1.1,1,1.5c0.1,0.1,0.1,0.2,0.2,0.3c0,0,0.1,0.1,0.1,0.2v5.4c0,1.6-0.9,3-2.2,3.8l-4.3,2.4
	L40,64.4l-0.3,0.6l-9.2,5C25.8,72.7,22.9,77.7,22.9,83.1L22.9,83.1z M94.7,86.7H26.1v-3.7c0-4.2,2.3-8.1,6-10.1l14.6-8
	c2.4-1.3,4-3.9,4-6.7v-6.6l-0.3-0.4l-0.1-0.1c0,0-0.1-0.1-0.3-0.3c0,0,0,0,0,0c-0.1-0.1-0.2-0.2-0.3-0.4c0,0,0,0,0,0
	c-0.2-0.3-0.5-0.8-0.9-1.3c0,0,0,0,0,0c-0.2-0.3-0.3-0.5-0.5-0.8c0,0,0,0,0-0.1c-0.4-0.6-0.8-1.3-1.2-2.1c0,0,0,0,0,0
	c-0.2-0.4-0.4-0.9-0.6-1.3c0-0.1-0.1-0.1-0.1-0.2c-0.1-0.2-0.2-0.4-0.3-0.6c0-0.1-0.1-0.2-0.1-0.2c-0.1-0.2-0.2-0.4-0.3-0.7
	c-0.2-0.4-0.3-0.9-0.5-1.4l-0.1-0.3c0,0,0-0.1,0-0.1c-0.2-0.5-0.3-1-0.4-1.6l-0.2-0.6L44,38.7c-0.9-0.6-1.5-1.6-1.5-2.7v-6.6
	c0-0.9,0.4-1.8,1.1-2.4l0.5-0.5V15.8l0,0c-0.1-1.2,0-4.8,2.6-7.8c2.7-3.1,7.3-4.7,13.7-4.7c6.4,0,11,1.5,13.7,4.6
	c3.2,3.6,2.7,8.2,2.6,8.2l0,10.4l0.5,0.5c0.7,0.6,1.1,1.5,1.1,2.4V36c0,1.4-0.9,2.7-2.3,3.1l-0.8,0.2L75,40.2
	c-1.1,3.4-2.6,6.6-4.6,9.3c-0.5,0.7-1,1.3-1.4,1.8l-0.4,0.5v6.8c0,2.9,1.6,5.5,4.2,6.8l15.6,7.8c3.9,2,6.3,5.9,6.3,10.3V86.7z
	 M94.7,86.7"/>
</svg>
