<?xml version="1.0" encoding="utf-8"?>
<!-- Generator: Adobe Illustrator 21.1.0, SVG Export Plug-In . SVG Version: 6.00 Build 0)  -->
<svg version="1.1" id="Capa_1" xmlns="http://www.w3.org/2000/svg" xmlns:xlink="http://www.w3.org/1999/xlink" x="0px" y="0px"
	 viewBox="0 0 20 20" style="enable-background:new 0 0 20 20;" xml:space="preserve">
	 <style>
		svg#Capa_1 {fill: #FFFFFF;}
	 </style>
<g>
	<path d="M4,13.3c2,2.4,4.4,4.2,7.1,5.5c1,0.5,2.4,1.1,4,1.2c0.1,0,0.2,0,0.3,0c1,0,1.9-0.4,2.5-1.1c0,0,0,0,0,0
		c0.2-0.3,0.5-0.6,0.8-0.8c0.2-0.2,0.4-0.4,0.6-0.6c0.9-0.9,0.9-2.1,0-3L16.8,12c-0.4-0.4-0.9-0.7-1.5-0.7c-0.5,0-1,0.2-1.5,0.7
		l-1.5,1.5c-0.1-0.1-0.3-0.1-0.4-0.2c-0.2-0.1-0.3-0.2-0.5-0.2c-1.4-0.9-2.6-2-3.8-3.4c-0.6-0.8-1-1.4-1.3-2
		c0.4-0.4,0.8-0.7,1.1-1.1c0.1-0.1,0.3-0.3,0.4-0.4c0.4-0.4,0.7-1,0.7-1.5s-0.2-1-0.7-1.5L6.7,1.9C6.6,1.8,6.4,1.6,6.3,1.5
		C6,1.2,5.7,0.9,5.4,0.6C5,0.2,4.5,0,4,0c-0.5,0-1,0.2-1.5,0.6L0.9,2.2C0.4,2.8,0,3.4,0,4.2c-0.1,1,0.1,2,0.6,3.3
		C1.3,9.5,2.4,11.3,4,13.3z M1,4.3c0-0.6,0.3-1,0.7-1.4l1.5-1.5C3.4,1.1,3.7,1,4,1c0.3,0,0.5,0.1,0.7,0.4C5,1.6,5.3,1.9,5.5,2.2
		C5.7,2.3,5.8,2.5,6,2.6l1.2,1.2c0.3,0.3,0.4,0.5,0.4,0.8S7.5,5.2,7.2,5.4C7.1,5.5,7,5.7,6.8,5.8C6.4,6.2,6.1,6.6,5.7,6.9
		c0,0,0,0,0,0C5.3,7.3,5.4,7.6,5.5,7.9c0,0,0,0,0,0c0.3,0.8,0.8,1.5,1.5,2.4c1.2,1.5,2.6,2.7,4,3.6c0.2,0.1,0.4,0.2,0.5,0.3
		c0.2,0.1,0.3,0.2,0.5,0.2c0,0,0,0,0,0c0.1,0.1,0.3,0.1,0.4,0.1c0.3,0,0.5-0.2,0.6-0.3l1.6-1.5c0.2-0.2,0.5-0.4,0.8-0.4
		c0.3,0,0.6,0.2,0.7,0.4l2.5,2.5c0.5,0.5,0.5,1,0,1.6c-0.2,0.2-0.4,0.4-0.6,0.6c-0.3,0.3-0.6,0.6-0.9,0.9c-0.5,0.5-1,0.8-1.8,0.8
		c-0.1,0-0.1,0-0.2,0c-1.4-0.1-2.6-0.6-3.6-1.1c-2.6-1.2-4.9-3-6.7-5.3c-1.6-1.9-2.6-3.6-3.3-5.4C1.1,6.1,0.9,5.2,1,4.3z"/>
</g>
</svg>
