<?xml version="1.0" encoding="utf-8"?>
<!-- Generator: Adobe Illustrator 21.1.0, SVG Export Plug-In . SVG Version: 6.00 Build 0)  -->
<svg version="1.1" id="Layer_1" xmlns="http://www.w3.org/2000/svg" xmlns:xlink="http://www.w3.org/1999/xlink" x="0px" y="0px"
	 viewBox="0 0 112 90" style="enable-background:new 0 0 112 90;" xml:space="preserve">
	 <style>
	 svg#Layer_1{fill: #0082c2}
	 </style>
<g>
	<path d="M112,26.4c0-5.8-4.4-12.1-11.6-12.1l-0.1,0c-5.1,0.1-15.1,0.1-19.6,0c-0.3-2.9-1.5-6.9-4.5-10C73.6,1.5,69.8,0,65.4,0
		C53.9-0.2,46.1,0,45.4,0c-4,0-7.5,1.4-10.1,4c-2.7,2.7-4.5,6.6-4.9,10.9l-19.5-0.5l-0.1,0C5.6,14.4,0,17.8,0,25.2l0,0.1
		c0.3,6.8,0,51.4,0,51.8l0,0.6c0,2.9,0,6.5,2.7,9.3C4.8,89,8.2,90.1,13,90.1l0,0c10.7-0.2,86.4,0,87.2,0c4.1,0,11.8-4.1,11.8-11.8
		l0-0.1C111.6,71.8,112,26.9,112,26.4z M107.4,78.3c0,4.7-5.1,7.2-7.2,7.2c-0.5,0-34.1-0.1-59.8-0.1c-12.9,0-23.8,0-27.4,0.1
		c-3.5,0-5.8-0.6-7.1-1.8c-1.3-1.4-1.3-3.6-1.3-6l0-0.6c0-1.8,0.3-44.9,0-52c0-5.8,5.1-6.2,6.2-6.2l21.7,0.6c1.3,0,2.4-1,2.4-2.3v0
		c0-4,1.4-7.7,3.7-10c1.8-1.8,4.1-2.7,6.9-2.7l0,0l0,0c0.1,0,7.9-0.2,19.8,0l0,0l0,0c3.2,0,5.7,1,7.6,2.9c2.6,2.8,3.4,7,3.3,9v0
		c-0.1,1.3,1,2.4,2.3,2.4l0,0c0.2,0,15.2,0.2,21.9,0c4.8,0,7,4.5,7,7.4C107.4,28.3,107.1,71.6,107.4,78.3z"/>
	<path d="M56,28.9c-13.1,0-23.8,10.7-23.8,23.8S42.9,76.5,56,76.5s23.8-10.7,23.8-23.8S69.1,28.9,56,28.9z M56,70.8
		c-10,0-18.1-8.1-18.1-18.1c0-10,8.1-18.1,18.1-18.1s18.1,8.1,18.1,18.1C74.1,62.7,66,70.8,56,70.8z"/>
	<circle cx="18.6" cy="31.7" r="3.7"/>
</g>
</svg>
