<?xml version="1.0" encoding="utf-8"?>
<!-- Generator: Adobe Illustrator 21.1.0, SVG Export Plug-In . SVG Version: 6.00 Build 0)  -->
<svg version="1.1" id="Layer_1" xmlns="http://www.w3.org/2000/svg" xmlns:xlink="http://www.w3.org/1999/xlink" x="0px" y="0px"
	 viewBox="0 0 90 90" style="enable-background:new 0 0 90 90;" xml:space="preserve">
<style type="text/css">
	.st0{fill:none;}
	svg#Layer_1 {fill: #b8b8b8}
</style>
<path d="M87.6,16.7c-3.2-6-8.2-9.5-11.5-7.8c-0.3,0.1-0.5,0.4-0.7,0.6c0,0-37.2,33.2-71.9,41.3c0,0-0.7,0.3-1,0.4
	c-1,0.5-1.8,1.5-2.2,2.8c-0.9,2.8-0.1,7,2.1,11.1c2.6,5,6.4,8.3,9.5,8.3c0.7,0,1.3-0.2,1.9-0.5c0.3-0.2,0.5-0.4,0.7-0.6
	c0,0,13.1-11.7,31-22.9c-0.6,3-1.9,7.4-4.6,10.8l4.4-1.8l2.4,2.8c0,0,3.1-4.4,4-10.5c5.6,2.5,11.1,2.1,11.1,2.1l-1.1-3.5l3.8-2.8
	c-4.5,0.6-9-0.7-11.9-1.8c10.4-5.9,21.8-11.1,33-13.7c0,0,0.6-0.3,0.9-0.4C90.8,28.8,90.8,22.9,87.6,16.7L87.6,16.7z M12.3,69.8
	c-1,0.5-4.3-1.5-6.9-6.4c-1.9-3.7-2.3-6.9-1.8-8.5c0.1-0.3,0.2-0.6,0.5-0.8c0.1-0.1,0.2-0.1,0.4-0.1c1.3,0,4.2,2,6.5,6.4
	C13.5,65.4,13.3,69.3,12.3,69.8L12.3,69.8z M14,59c-1.4-2.6-3.1-4.7-4.9-6.2c10.7-3.1,21.6-8.4,31.5-14.2c1.8,1.7,3.6,4.2,4.3,7.2
	c-12.8,8-23.3,16.3-28.6,20.8C16.2,64.3,15.4,61.7,14,59L14,59z M85.9,27.5c-0.1,0.1-0.6,0.2-0.6,0.3c-11.8,2.8-23.6,8.3-34.2,14.3
	c-1.1-2.9-2.7-5.3-4.4-7.3c17.9-11.3,31.3-23,31.3-23c1.3,0,4.2,2,6.5,6.4C87.1,23.1,86.9,27,85.9,27.5L85.9,27.5z M85.9,27.5"/>
<rect x="1.3" y="15.4" class="st0" width="80" height="57.2"/>
</svg>
