<?xml version="1.0" encoding="iso-8859-1"?>
<!-- Generator: Adobe Illustrator 21.1.0, SVG Export Plug-In . SVG Version: 6.00 Build 0)  -->
<svg version="1.1" id="Layer_1" xmlns="http://www.w3.org/2000/svg" xmlns:xlink="http://www.w3.org/1999/xlink" x="0px" y="0px"
	 viewBox="0 0 72 69" style="enable-background:new 0 0 72 69;" xml:space="preserve">
	<style type="text/css">
		svg#Layer_1{fill:#27a6ed;}
	</style>
<path d="M61.8,0L10.2,0.1C4.6,0.1,0,4.5,0,10v36.6c0,5.6,4.6,10.1,10.2,10.1h3c0.2,0,0.5,0.1,0.7,0.3c0.2,0.1,0.2,0.3,0.2,0.4v0.1
	l0.1,9c0,0.9,0.5,1.8,1.3,2.2c0.3,0.2,0.7,0.3,1.1,0.3c0.5,0,1-0.1,1.4-0.4l11.2-10.5c1.3-1,2.8-1.5,4.4-1.5h28.2
	c5.6,0,10.2-4.5,10.2-10V10C72,4.5,67.4,0,61.8,0z"/>
</svg>
