<?xml version="1.0" encoding="utf-8"?>
<!-- Generator: Adobe Illustrator 21.1.0, SVG Export Plug-In . SVG Version: 6.00 Build 0)  -->
<svg version="1.1" id="Layer_1" xmlns="http://www.w3.org/2000/svg" xmlns:xlink="http://www.w3.org/1999/xlink" x="0px" y="0px"
	 viewBox="0 0 90 78" style="enable-background:new 0 0 90 78;" xml:space="preserve">
<g>
	<path d="M19.2,78c-0.3,0-0.7-0.1-1-0.2c-0.7-0.4-1.2-1.1-1.2-2l-0.1-7.6l0-0.1c0-0.3-0.1-0.8-0.4-1.2c-0.4-0.4-0.9-0.6-1.4-0.6
		h-3.6C5.1,66.3,0,61.3,0,55.1V11.2C0,5.1,5.1,0.1,11.4,0.1L78.6,0C84.9,0,90,5,90,11.2v43.9c0,6.2-5.1,11.2-11.4,11.2h-39
		c-2.1,0-4.2,0.7-5.8,2l-0.1,0.1l-13.2,9.1C20,77.9,19.6,78,19.2,78z M18.1,74.2C18.1,74.2,18.1,74.2,18.1,74.2L18.1,74.2z M21,68.4
		l0,3.8l10.2-7c2.3-1.9,5.3-2.9,8.3-2.9h39c4.1,0,7.3-3.1,7.3-7.1V11.2c0-3.9-3.3-7.1-7.3-7.1L11.4,4.3c-4,0-7.3,3.1-7.3,7v43.9
		c0,3.9,3.3,7.1,7.3,7.1H15c1.6,0,3.1,0.6,4.3,1.8l0.1,0.1C20.5,65.2,21.1,66.8,21,68.4z"/>
</g>
</svg>
