<?xml version="1.0" encoding="utf-8"?>
<!-- Generator: Adobe Illustrator 21.1.0, SVG Export Plug-In . SVG Version: 6.00 Build 0)  -->
<svg version="1.1" id="Layer_1" xmlns="http://www.w3.org/2000/svg" xmlns:xlink="http://www.w3.org/1999/xlink" x="0px" y="0px"
	 viewBox="0 0 16.1 13" style="enable-background:new 0 0 16.1 13;" xml:space="preserve">
	 <style>
	 svg#Layer_1 {fill: #FFFFFF}
	 </style>
<path d="M13.4,4.9h-0.2c0.6-0.4,1-1,1-1.7c0-1.1-0.9-2-2-2s-2,0.9-2,2c0,0.1,0,0.2,0,0.3C9.6,2.9,8.9,2.5,8,2.5c-0.8,0-1.5,0.4-2,1
	c0-0.1,0-0.2,0-0.3c0-1.1-0.9-2-2-2s-2,0.9-2,2c0,0.7,0.4,1.4,1,1.7H2.8C1.2,4.9,0,6.2,0,7.7C0,8,0.2,8.2,0.5,8.2S1,8,1,7.7
	c0-1,0.8-1.8,1.8-1.8h2.8c0.3,0.8,1,1.5,1.9,1.7H6.3c-2,0-3.6,1.6-3.6,3.6h1c0-1.4,1.2-2.6,2.6-2.6h3.4c1.4,0,2.6,1.2,2.6,2.6h1
	c0-2-1.6-3.6-3.6-3.6H8.6c0.9-0.2,1.6-0.8,1.9-1.7h2.9c1,0,1.8,0.8,1.8,1.8c0,0.3,0.2,0.5,0.5,0.5s0.5-0.2,0.5-0.5
	C16.1,6.2,14.9,4.9,13.4,4.9z M12.1,2.2c0.6,0,1,0.5,1,1s-0.5,1-1,1c-0.6,0-1-0.5-1-1S11.5,2.2,12.1,2.2z M11,4.9h-0.4
	c0-0.1,0-0.3-0.1-0.4C10.7,4.7,10.8,4.8,11,4.9z M4,2.2c0.6,0,1,0.5,1,1s-0.5,1-1,1s-1-0.5-1-1S3.4,2.2,4,2.2z M5.5,4.6
	c0,0.1,0,0.2,0,0.3H5.1C5.2,4.8,5.4,4.7,5.5,4.6z M8,6.7C7.2,6.7,6.4,6,6.4,5.1S7.2,3.5,8,3.5c0.9,0,1.6,0.7,1.6,1.6S8.9,6.7,8,6.7z
	"/>
</svg>
