<?xml version="1.0" encoding="utf-8"?>
<!-- Generator: Adobe Illustrator 21.1.0, SVG Export Plug-In . SVG Version: 6.00 Build 0)  -->
<svg version="1.1" id="Layer_1" xmlns="http://www.w3.org/2000/svg" xmlns:xlink="http://www.w3.org/1999/xlink" x="0px" y="0px"
	 viewBox="0 0 11.3 13" style="enable-background:new 0 0 11.3 13;" xml:space="preserve">
	 <style>
	 svg#Layer_1 {fill: #FFFFFF}
	 </style>
<g>
	<path d="M10.2,3.5C9.6,1.4,7.8,0,5.7,0c-2.1,0-4,1.4-4.5,3.5H0v0.4C0,6.1,1.4,8.1,3.3,9v0.5H8V9c1.9-0.9,3.3-2.9,3.3-5.1V3.5H10.2z
		 M5.7,0.8c1.7,0,3.2,1.1,3.7,2.7H2C2.5,1.9,4,0.8,5.7,0.8z M5.7,8.7c-2.5,0-4.6-2-4.8-4.4h9.7C10.3,6.7,8.2,8.7,5.7,8.7z"/>
	<rect x="0.5" y="12.2" width="10.5" height="0.8"/>
	<rect x="0.5" y="10.6" width="10.5" height="0.8"/>
</g>
</svg>
