<?xml version="1.0" encoding="utf-8"?>
<!-- Generator: Adobe Illustrator 21.1.0, SVG Export Plug-In . SVG Version: 6.00 Build 0)  -->
<svg version="1.1" id="Layer_1" xmlns="http://www.w3.org/2000/svg" xmlns:xlink="http://www.w3.org/1999/xlink" x="0px" y="0px"
	 viewBox="0 0 30 90" style="enable-background:new 0 0 30 90;" xml:space="preserve">
	 <style>
	 svg#Layer_1 {fill: #FFFFFF;}
	 </style>
<path d="M27.4,0L2.6,0C1.9,0,1.2,0.3,0.8,0.7C0.3,1.2,0,1.9,0,2.5v71.8c0,0.6,0.3,1.3,0.7,1.7l12.4,13.1c0.5,0.5,1.2,0.8,1.9,0.8
	c0.7,0,1.3-0.3,1.8-0.7c0,0,0,0,0.1-0.1l12.4-13.1c0.4-0.5,0.7-1.1,0.7-1.7l0-71.8C30,1.1,28.9,0,27.4,0L27.4,0z M24.9,73.4L15,83.7
	L5.1,73.4l0-43.7l19.7,0L24.9,73.4z M24.9,24.6l-19.7,0l0-19.5l19.7,0L24.9,24.6z M24.9,24.6"/>
</svg>
