<?xml version="1.0" encoding="utf-8"?>
<!-- Generator: Adobe Illustrator 21.1.0, SVG Export Plug-In . SVG Version: 6.00 Build 0)  -->
<svg version="1.1" id="Layer_1" xmlns="http://www.w3.org/2000/svg" xmlns:xlink="http://www.w3.org/1999/xlink" x="0px" y="0px"
	 viewBox="0 0 90 84" style="enable-background:new 0 0 90 84;" xml:space="preserve">
<g>
	<path d="M45.1,84l-7.6-7.6C15.8,57.3,0.1,43.4,0.1,25.8C0.1,11.3,11.5,0,25.9,0C33,0,40,2.9,45.1,7.8C50.2,2.9,57.2,0,64.3,0
		c14.5,0,25.8,11.3,25.8,25.8c0,17.6-15.7,31.5-37.4,50.7L45.1,84z M25.9,4.7c-11.8,0-21.1,9.2-21.1,21c0,14.8,13,27,35.9,47.2
		l0.1,0.1l4.3,4.3l4.4-4.4c22.9-20.2,35.9-32.4,35.9-47.2c0-11.8-9.3-21-21.1-21c-6.5,0-13.2,3.1-17.4,8.1L45.1,15l-1.8-2.1
		C39.1,7.8,32.4,4.7,25.9,4.7z"/>
</g>
</svg>
