<?xml version="1.0" encoding="utf-8"?>
<!-- Generator: Adobe Illustrator 21.1.0, SVG Export Plug-In . SVG Version: 6.00 Build 0)  -->
<svg version="1.1" id="Layer_1" xmlns="http://www.w3.org/2000/svg" xmlns:xlink="http://www.w3.org/1999/xlink" x="0px" y="0px"
	 viewBox="0 0 85 90" style="enable-background:new 0 0 85 90;" xml:space="preserve">
	 <style>
		svg#Layer_1 {fill: #b8b8b8;}
	 </style>
<path d="M82.2,81V40.3c0-2.1-1.7-3.8-3.8-3.8H60.2V25.4c0-1-0.6-2-1.5-2.5l-14.8-8.3c-0.1,0-0.2-0.1-0.2-0.1V9.8h8
	c0.6,0,1.2-0.5,1.2-1.2V2.8c0-0.6-0.5-1.2-1.2-1.2h-8V1.2c0-0.6-0.5-1.2-1.2-1.2c-0.6,0-1.2,0.5-1.2,1.2v13.4
	c-0.1,0-0.2,0.1-0.2,0.1l-14.8,8.3c-0.9,0.5-1.5,1.5-1.5,2.5v11.1H6.6c-2.1,0-3.8,1.7-3.8,3.8V81C1.1,81.7,0,83.4,0,85.3
	C0,87.9,2.1,90,4.7,90h75.6c2.6,0,4.7-2.1,4.7-4.7C85,83.4,83.9,81.7,82.2,81L82.2,81z M67.4,49.9c0-1.2,1-2.2,2.2-2.2h4.2
	c1.2,0,2.2,1,2.2,2.2v4.2c0,1.2-1,2.2-2.2,2.2h-4.2c-1.2,0-2.2-1-2.2-2.2V49.9z M67.4,63.3c0-1.2,1-2.2,2.2-2.2h4.2
	c1.2,0,2.2,1,2.2,2.2v4.2c0,1.2-1,2.2-2.2,2.2h-4.2c-1.2,0-2.2-1-2.2-2.2V63.3z M54,49.9c0-1.2,1-2.2,2.2-2.2h4.2
	c1.2,0,2.2,1,2.2,2.2v4.2c0,1.2-1,2.2-2.2,2.2h-4.2c-1.2,0-2.2-1-2.2-2.2V49.9z M54,63.3c0-1.2,1-2.2,2.2-2.2h4.2
	c1.2,0,2.2,1,2.2,2.2v4.2c0,1.2-1,2.2-2.2,2.2h-4.2c-1.2,0-2.2-1-2.2-2.2V63.3z M42.5,25.4c3.5,0,6.3,2.8,6.3,6.3
	c0,3.5-2.8,6.3-6.3,6.3c-3.5,0-6.3-2.8-6.3-6.3C36.2,28.3,39,25.4,42.5,25.4L42.5,25.4z M36.2,61.8c0-1.2,1-2.2,2.2-2.2h8.2
	c1.2,0,2.2,1,2.2,2.2v17.6c0,0.4-0.1,0.8-0.3,1.1H36.5c-0.2-0.3-0.3-0.7-0.3-1.1L36.2,61.8L36.2,61.8z M22.4,49.9
	c0-1.2,1-2.2,2.2-2.2h4.2c1.2,0,2.2,1,2.2,2.2v4.2c0,1.2-1,2.2-2.2,2.2h-4.2c-1.2,0-2.2-1-2.2-2.2V49.9z M22.4,63.3
	c0-1.2,1-2.2,2.2-2.2h4.2c1.2,0,2.2,1,2.2,2.2v4.2c0,1.2-1,2.2-2.2,2.2h-4.2c-1.2,0-2.2-1-2.2-2.2V63.3z M8.9,49.9
	c0-1.2,1-2.2,2.2-2.2h4.2c1.2,0,2.2,1,2.2,2.2v4.2c0,1.2-1,2.2-2.2,2.2h-4.2c-1.2,0-2.2-1-2.2-2.2V49.9z M8.9,63.3
	c0-1.2,1-2.2,2.2-2.2h4.2c1.2,0,2.2,1,2.2,2.2v4.2c0,1.2-1,2.2-2.2,2.2h-4.2c-1.2,0-2.2-1-2.2-2.2V63.3z M8.9,63.3"/>
</svg>
