<?xml version="1.0" encoding="utf-8"?>
<!-- Generator: Adobe Illustrator 21.1.0, SVG Export Plug-In . SVG Version: 6.00 Build 0)  -->
<svg version="1.1" id="Layer_1" xmlns="http://www.w3.org/2000/svg" xmlns:xlink="http://www.w3.org/1999/xlink" x="0px" y="0px"
	 viewBox="0 0 104 90" style="enable-background:new 0 0 104 90;" xml:space="preserve">
	<style>
	 svg#Layer_1 {fill: #566f7b;}
	 </style>
<g>
	<rect x="58.1" y="60.6" width="8.6" height="1.8"/>
	<path d="M78,0H26L0,45l26,45h52l26-45L78,0z M31.9,31c0-1.1,0.9-2.1,2.1-2.1h1.1c0.3-3.3,1-6.1,2.5-8.4c2.6-4.2,7.3-6.3,14.4-6.3
		c7.1,0,11.8,2.1,14.4,6.3c1.5,2.4,2.2,5.2,2.5,8.4h1.1c1.1,0,2.1,0.9,2.1,2.1v8.7c0,1.1-0.9,2.1-2.1,2.1h-0.9
		c-0.1,0.1-0.1,0.2-0.2,0.3c-1.7,2.2-5.7,3.3-12.2,3.3c-0.5,0-1,0-1.5,0c-0.3,0.4-0.8,0.7-1.4,0.7h-2.5c-1,0-1.8-0.8-1.8-1.8
		c0-1,0.8-1.8,1.8-1.8h2.5c0.7,0,1.3,0.4,1.6,1c0.5,0,1,0,1.4,0c5.7,0,8.4-0.9,9.8-1.8c-0.9-0.2-1.6-1-1.6-2V31c0-0.8,0.4-1.4,1-1.8
		c-0.3-2.7-0.8-5.2-2.1-7.2c-2.1-3.3-5.9-4.9-11.9-4.9c-10.6,0-13.3,4.9-14,12.1c0.6,0.4,1,1,1,1.8v8.7c0,1.1-0.9,2.1-2.1,2.1h-3
		c-1.1,0-2.1-0.9-2.1-2.1V31z M39.8,28.5c0.4-3.2,1.3-5.3,2.7-6.8c1.9-1.9,5-2.9,9.5-2.9c5.4,0,8.8,1.3,10.5,4.1
		c0.8,1.4,1.4,3.2,1.7,5.6c-0.6,0.7-0.9,1.5-0.9,2.4v8.7c0,0.5,0.1,1,0.3,1.4c-1.4,0.4-3.5,0.7-6.8,0.7c-0.2,0-0.4,0-0.6,0
		c-0.6-0.6-1.5-1-2.4-1h-2.5c-1.9,0-3.4,1.5-3.4,3.4c0,1.9,1.5,3.4,3.4,3.4h2.5c0.8,0,1.5-0.3,2.1-0.7c0.3,0,0.6,0,0.9,0
		c1.2,0,2.3,0,3.3-0.1c-2.8,2.6-6.1,3.7-8.1,3.7c-3,0-9-2.7-11.9-8.9c0.4-0.6,0.6-1.2,0.6-2V31C40.7,30,40.4,29.2,39.8,28.5z
		 M76.8,67.8c-0.1,0.3-3.1,8-24.8,8s-24.7-7.7-24.8-8c-0.1-0.1-0.1-0.3,0-0.5c0.3-1.6,1.7-9.5,4.9-11.7c1.9-1.3,8.7-5,11.6-6.5
		c0.3-0.2,0.7-0.1,1,0.1c1.5,1.2,3.2,2,4.9,2.4c0.3,0.1,0.6,0.3,0.7,0.6l1.8,4.7l1.8-4.7c0.1-0.3,0.4-0.5,0.7-0.6
		c1.7-0.4,3.4-1.2,4.9-2.4c0.3-0.2,0.7-0.3,1-0.1l0.1,0c2.9,1.5,9.6,5.1,11.5,6.5c2.8,1.9,4.2,7.4,4.9,11.7
		C76.9,67.5,76.9,67.6,76.8,67.8z"/>
</g>
</svg>
