<?xml version="1.0" encoding="utf-8"?>
<!-- Generator: Adobe Illustrator 21.1.0, SVG Export Plug-In . SVG Version: 6.00 Build 0)  -->
<svg version="1.1" id="Layer_1" xmlns="http://www.w3.org/2000/svg" xmlns:xlink="http://www.w3.org/1999/xlink" x="0px" y="0px"
	 viewBox="0 0 90 90" style="enable-background:new 0 0 90 90;" xml:space="preserve">
<style type="text/css">
	svg#Layer_1 {fill: #0082c2;}
</style>
<g>
	<g>
		<defs>
			<rect id="SVGID_1_" x="2" y="3" width="85" height="85"/>
		</defs>
		<clipPath id="SVGID_2_">
			<use xlink:href="#SVGID_1_"  style="overflow:visible;"/>
		</clipPath>
		<path class="st0" d="M74.5,15.5c-16.6-16.6-43.5-16.6-60,0c-16.6,16.6-16.6,43.5,0,60C31,92,57.9,92,74.5,75.5
			C91,58.9,91,32,74.5,15.5L74.5,15.5z M69.9,70.9c-14,14-36.8,14-50.8,0c-14-14-14-36.8,0-50.8c14-14,36.8-14,50.8,0
			C83.9,34.1,83.9,56.9,69.9,70.9L69.9,70.9z M28.6,34c0-2.7,2.2-5,5-5c2.7,0,5,2.2,5,5c0,2.7-2.2,5-5,5
			C30.9,38.9,28.6,36.7,28.6,34L28.6,34z M51.1,34c0-2.7,2.2-5,5-5c2.7,0,5,2.2,5,5c0,2.7-2.2,5-5,5C53.4,38.9,51.1,36.7,51.1,34
			L51.1,34z M62.9,54.3C59.8,61.4,52.6,66,44.5,66c-8.2,0-15.5-4.6-18.5-11.8c-0.5-1.2,0.1-2.6,1.3-3.1c0.3-0.1,0.6-0.2,0.9-0.2
			c0.9,0,1.8,0.6,2.2,1.5c2.2,5.3,7.7,8.8,14,8.8c6.2,0,11.6-3.5,13.9-8.8c0.5-1.2,1.9-1.8,3.2-1.3C62.8,51.7,63.4,53.1,62.9,54.3
			L62.9,54.3z M62.9,54.3"/>
	</g>
</g>
</svg>
