<?xml version="1.0" encoding="utf-8"?>
<!-- Generator: Adobe Illustrator 21.1.0, SVG Export Plug-In . SVG Version: 6.00 Build 0)  -->
<svg version="1.1" id="Layer_1" xmlns="http://www.w3.org/2000/svg" xmlns:xlink="http://www.w3.org/1999/xlink" x="0px" y="0px"
	 viewBox="0 0 20 20" style="enable-background:new 0 0 20 20;" xml:space="preserve">
	<style>
		svg#Layer_1 {fill: #666666}
	</style>
<path d="M19.4,16.3L13.1,10l6.3-6.3c0.8-0.8,0.8-2.2,0-3.1C19,0.2,18.4,0,17.8,0c-0.6,0-1.1,0.2-1.5,0.6L10,6.9L3.7,0.6
	c-0.8-0.8-2.2-0.8-3.1,0c-0.8,0.8-0.8,2.2,0,3.1L6.9,10l-6.3,6.3C0.2,16.7,0,17.2,0,17.8c0,0.6,0.2,1.1,0.6,1.5
	c0.8,0.8,2.2,0.8,3.1,0l6.3-6.3l6.3,6.3c0.4,0.4,0.9,0.6,1.5,0.6c0,0,0,0,0,0c0.6,0,1.1-0.2,1.5-0.6c0.4-0.4,0.6-1,0.6-1.5
	C20,17.2,19.8,16.7,19.4,16.3z"/>
</svg>
