<?xml version="1.0" encoding="utf-8"?>
<!-- Generator: Adobe Illustrator 21.1.0, SVG Export Plug-In . SVG Version: 6.00 Build 0)  -->
<svg version="1.1" id="Layer_1" xmlns="http://www.w3.org/2000/svg" xmlns:xlink="http://www.w3.org/1999/xlink" x="0px" y="0px"
	 viewBox="0 0 90 90" style="enable-background:new 0 0 90 90;" xml:space="preserve">
	 <style>
	 svg#Layer_1 {fill: #566f7b;}
	 </style>
<g>
	<ellipse cx="44.9" cy="9.1" rx="9.1" ry="9.1"/>
	<path d="M44.9,41.9l20.8-21c2-2,2-5.3,0-7.2c-2-2-5.2-2-7.2,0L44.9,27.4L31.3,13.7c-2-2-5.2-2-7.2,0l0,0c-2,2-2,5.3,0,7.2
		L44.9,41.9z"/>
	<ellipse cx="9" cy="44.9" rx="9.1" ry="9.1"/>
	<path d="M20.8,24c-2-2-5.2-2-7.2,0c-2,2-2,5.3,0,7.2l13.6,13.7L13.6,58.6c-2,2-2,5.3,0,7.2l0,0c2,2,5.2,2,7.2,0l20.8-20.9L20.8,24z
		"/>
	<ellipse cx="80.9" cy="45.1" rx="9.1" ry="9.1"/>
	<path d="M62.7,45l13.6-13.7c2-2,2-5.3,0-7.2c-2-2-5.2-2-7.2,0l-20.8,21L69.1,66c2,2,5.2,2,7.2,0l0,0c2-2,2-5.3,0-7.2L62.7,45z"/>
	<ellipse cx="44.9" cy="80.9" rx="9.1" ry="9.1"/>
	<path d="M44.9,48.1L24.1,69c-2,2-2,5.3,0,7.2l0,0c2,2,5.2,2,7.2,0l13.6-13.7l13.6,13.7c2,2,5.2,2,7.2,0c2-2,2-5.3,0-7.2L44.9,48.1z
		"/>
</g>
</svg>
