<?xml version="1.0" encoding="iso-8859-1"?>
<!-- Generator: Adobe Illustrator 21.1.0, SVG Export Plug-In . SVG Version: 6.00 Build 0)  -->
<svg version="1.1" id="Layer_1" xmlns="http://www.w3.org/2000/svg" xmlns:xlink="http://www.w3.org/1999/xlink" x="0px" y="0px"
	 viewBox="0 0 90 90" style="enable-background:new 0 0 90 90;" xml:space="preserve">
	 <style>
	 svg#Layer_1 {fill: #FFFFFF}
	 </style>
<path d="M77.818,32.811c-2.206,0-3.806,1.544-3.806,3.749c0,2.2,1.6,3.826,3.806,3.826c2.205,0,3.806-1.626,3.806-3.826
	C81.624,34.355,80.024,32.811,77.818,32.811z M37.892,4.181c-7.211,0.2-12.602,2.426-16.008,6.811
	c-4.006,5.211-4.785,13.366-2.18,23.584c-1.005,0.98-1.646,2.785-1.446,4.991c0.4,4.406,2.226,6.211,3.626,7.011
	c0.605,3.385,2.585,7.453,4.37,9.237v1c0,2.005,0.021,3.806-0.18,6.011c-1.205,2.785-4.791,4.385-9.196,6.191
	C9.682,72.003,0.67,75.808-0.115,88.011l-0.2,2.185h76.398v-2.185c-0.805-12.002-9.797-16.008-17.013-18.993
	c-4.185-1.805-7.971-3.406-9.176-6.191c-0.2-2.206-0.2-4.006-0.2-6.011v-1c1.805-1.785,3.785-5.852,4.39-9.237
	c1.4-0.8,3.026-2.606,3.626-7.011c0.4-2.206-0.4-3.79-1.205-4.991c1.205-4.006,3.385-14.167-0.621-20.757
	c-1.78-2.806-4.406-4.647-7.812-5.247C46.067,5.766,42.282,4.181,37.892,4.181z M78.378,0.196c-7.591,0-11.54,4.77-11.74,10.356
	h4.549c0.221-3.985,2.806-6.37,7.011-6.37c3.99,0,6.632,2.426,6.632,5.811c0,3.006-1.241,4.57-4.447,6.57
	c-3.606,2.406-5.37,4.832-5.37,8.437v2.565h4.811V25.82c0-2.806,0.98-4.447,4.365-6.452C87.795,17.383,90,14.198,90,9.992
	C90,4.401,85.174,0.196,78.378,0.196z"/>
</svg>
