<?xml version="1.0" encoding="iso-8859-1"?>
<!-- Generator: Adobe Illustrator 21.1.0, SVG Export Plug-In . SVG Version: 6.00 Build 0)  -->
<svg version="1.1" id="Layer_1" xmlns="http://www.w3.org/2000/svg" xmlns:xlink="http://www.w3.org/1999/xlink" x="0px" y="0px"
	 viewBox="0 0 90 75.96" style="enable-background:new 0 0 90 75.96;" xml:space="preserve">
	 <style>
	 svg#Layer_1 {fill: #FFFFFF}
	 </style>
<path d="M59.191,1.796c-2.537,0.037-4.747,0.47-6.672,1.17c1.008,0.884,1.906,1.925,2.643,3.094
	c3.868,6.244,2.661,14.73,1.275,20.09c0.774,1.621,1.027,3.453,0.792,5.378c-0.502,4.176-2.031,6.548-3.651,7.915
	c-0.737,2.735-2.031,5.521-3.472,7.464c-0.018,1.368-0.032,2.519,0.055,3.886c0.972,1.096,4.245,2.376,6.727,3.361
	c5.502,2.178,13.183,5.235,16.728,12.63H90l-0.106-1.906c-0.557-9.375-8.003-12.303-13.975-14.661
	c-3.311-1.294-6.442-2.556-7.358-4.531c-0.124-1.694-0.124-2.988-0.106-4.499v-0.612c1.437-1.492,2.749-4.443,3.255-6.907
	c1.114-0.626,2.408-2.067,2.804-5.396c0.198-1.653-0.235-2.928-0.898-3.813c0.916-3.113,2.606-10.88-0.507-15.881
	c-1.331-2.123-3.324-3.435-5.954-3.974C65.665,2.767,62.916,1.796,59.191,1.796z M35.791,0c-6.603,0.124-11.419,2.086-14.352,5.954
	c-3.472,4.568-4.121,11.53-1.906,20.647c-0.81,0.99-1.423,2.482-1.188,4.48c0.483,3.955,2.012,5.594,3.311,6.239
	c0.608,3.094,2.339,6.603,3.992,8.237v0.847c0,1.833,0,3.398-0.18,5.447c-1.096,2.519-4.747,3.997-8.974,5.668
	C9.476,60.287,0.755,63.69,0.106,74.57L0,76.477h72.052l-0.106-1.906c-0.055-0.755-0.166-1.437-0.29-2.123
	c-0.037-0.18-0.074-0.341-0.106-0.502c-0.111-0.525-0.198-1.045-0.345-1.51c-0.032-0.147-0.124-0.272-0.161-0.396
	c-0.18-0.525-0.341-1.045-0.576-1.529c-0.018-0.074-0.069-0.147-0.106-0.216c-0.253-0.539-0.52-1.027-0.847-1.51
	c-3.2-5.037-8.956-7.303-13.901-9.264c-4.209-1.671-7.878-3.149-8.993-5.668c-0.166-2.031-0.129-3.578-0.111-5.392v-0.902
	c1.621-1.635,3.274-5.125,3.886-8.237c1.257-0.663,2.823-2.284,3.311-6.239c0.23-1.943-0.345-3.435-1.133-4.425
	c1.041-3.564,3.182-12.824-0.507-18.74c-0.81-1.298-1.851-2.302-3.076-3.094c-0.576-0.359-1.151-0.686-1.796-0.953
	c-0.668-0.253-1.349-0.47-2.09-0.612C43.416,1.114,40.161,0,35.791,0z"/>
</svg>
