<?xml version="1.0" encoding="utf-8"?>
<!-- Generator: Adobe Illustrator 21.1.0, SVG Export Plug-In . SVG Version: 6.00 Build 0)  -->
<svg version="1.1" id="Layer_1" xmlns="http://www.w3.org/2000/svg" xmlns:xlink="http://www.w3.org/1999/xlink" x="0px" y="0px"
	 viewBox="0 0 60 60" style="enable-background:new 0 0 60 60;" xml:space="preserve">
<style type="text/css">
	.st0{fill:#FFFFFF;}
	svg#Layer_1 {fill: #0082c2;}
</style>
<g>
	<g>
		<path class="st0" d="M35.1,42L35.1,42c0-1.2-0.3-2.7-0.6-3.9c-0.6-2.7-0.9-5.4-1.5-8.1"/>
		<path class="st0" d="M34.2,20.1c0-0.3,0-0.6,0-0.9c0-0.9-0.6-1.8-1.5-1.8c-1.2,0-2.7,0-3.9,0c-1.2,0-1.8,0.9-1.8,1.8
			c0,0.6,0,1.2,0,1.8c0,1.5,0.9,2.4,2.1,3c1.5,0.6,2.7,0.3,3.9-0.6C33.9,22.5,34.2,21.3,34.2,20.1z"/>
		<path d="M43.2,11.1c-0.9,3.6-2.7,6.3-4.5,9.6c-0.6-0.6-1.2-0.9-1.5-1.5c-1.2-1.2-2.7-2.4-3.9-3.3c-0.9-0.6-1.8-0.9-2.7-0.9
			c-0.6,0-1.2,0-1.8,0.3c-1.5,0.9-3,2.1-4.5,3.3c-0.6,0.6-1.2,1.2-1.8,1.8c-0.3-0.3-0.6-0.9-0.9-1.2c-1.2-2.1-2.1-4.2-3.3-6.3
			c-0.6-1.2-0.6-2.4,0-3.6c0.6-1.2,1.5-2.4,3-2.7s3-0.3,4.2-0.3c3.9,0,8.1,0,12,0c3,0,4.8,1.5,5.4,4.2
			C43.2,10.8,43.2,11.1,43.2,11.1z M25.5,8.1L25.5,8.1c-0.3,0-0.9,0-1.2,0c-0.9,0-1.5,0.3-2.4,0.3c-0.9,0.3-1.2,1.2-0.6,2.1
			c0.6,0.6,0.9,1.5,1.8,1.8c2.7,1.5,5.7,2.4,8.7,2.1c1.8-0.3,3.9-0.6,5.4-1.5c1.2-0.6,2.1-1.5,2.7-2.7c0.3-0.6,0-1.2-0.6-1.5
			c-0.3,0-0.6-0.3-0.6-0.3c-1.5-0.3-3.3-0.3-4.8-0.3C30.9,8.1,28.2,8.1,25.5,8.1z"/>
		<path d="M34.6,46.7c-0.3,1.4-2.8,7.6-3.1,7.9c-0.6,0.6-1,0.5-1.5,0c-0.7-0.7-3-6.9-3.6-8.4c-0.6-1.8-0.6-3.6-0.3-5.7
			c0.6-3,2.4-12,2.7-13.8c0.3-0.9,0.3-1.6,1.5-1.8c1.4,0,1.6,0.8,1.9,1.7c0.3,1.2,2.3,13.9,2.6,15.1C35.1,44.4,35.1,44.7,34.6,46.7z
			"/>
		<path d="M34.2,20.1c0,1.2,0,2.4-1.2,3.3c-1.2,0.9-2.4,1.2-3.9,0.6S27,22.5,27,20.7c0-0.6,0-0.9,0-1.5c0-0.9,0.6-1.8,1.5-1.8
			c1.2,0,2.7,0,3.9,0C34.3,17.4,34.2,19.8,34.2,20.1z"/>
	</g>
	<g>
		<path d="M30,60C13.5,60,0,46.5,0,30S13.5,0,30,0s30,13.5,30,30S46.5,60,30,60z M30,4.2C15.6,4.2,3.9,15.9,3.9,30.3
			S15.6,56.4,30,56.4s26.1-11.7,26.1-26.1S44.4,4.2,30,4.2z"/>
	</g>
</g>
</svg>
