<?xml version="1.0" encoding="utf-8"?>
<!-- Generator: Adobe Illustrator 21.1.0, SVG Export Plug-In . SVG Version: 6.00 Build 0)  -->
<svg version="1.1" id="Layer_1" xmlns="http://www.w3.org/2000/svg" xmlns:xlink="http://www.w3.org/1999/xlink" x="0px" y="0px"
	 viewBox="0 0 104 90" style="enable-background:new 0 0 104 90;" xml:space="preserve">
	<style>
	 svg#Layer_1 {fill: #566f7b;}
	 </style>
<g>
	<path d="M99,44.7c0-0.1,0-0.1,0-0.2c0,0,0-0.1,0-0.1c0-0.1,0-0.2-0.1-0.3c0,0,0,0,0,0c0-0.1-0.1-0.2-0.1-0.3c0,0,0,0,0,0
		c0-0.1-0.1-0.2-0.1-0.2c0,0,0,0,0,0c0-0.1-0.1-0.1-0.1-0.2c0,0,0,0,0-0.1c-0.1-0.1-0.1-0.1-0.1-0.2l0,0c-0.1-0.1-0.1-0.2-0.2-0.2
		L79.9,24.6c-1.2-1.2-3.2-1.2-4.5,0c-1.2,1.2-1.2,3.2,0,4.5l12.8,12.8H37.4c-1.7,0-3.2,1.4-3.2,3.1c0,1.7,1.4,3.2,3.2,3.2h50.9
		L75.6,60.8c-1.2,1.2-1.2,3.2,0,4.5c0.6,0.6,1.4,0.9,2.2,0.9c0.8,0,1.6-0.3,2.2-0.9l18.1-18.1c0.1-0.1,0.2-0.2,0.2-0.3l0,0
		c0.1-0.1,0.1-0.1,0.1-0.2c0,0,0,0,0-0.1c0-0.1,0.1-0.1,0.1-0.2c0,0,0,0,0,0c0-0.1,0.1-0.1,0.1-0.2c0,0,0,0,0,0
		c0-0.1,0.1-0.2,0.1-0.3c0,0,0,0,0,0c0-0.1,0.1-0.2,0.1-0.3c0,0,0-0.1,0-0.1c0-0.1,0-0.1,0-0.2c0-0.1,0-0.2,0-0.3
		C99.1,44.9,99.1,44.8,99,44.7z"/>
	<path d="M55.8,83.7H32.6c-6,0-10.8-4.9-10.8-10.8V17.1c0-6,4.8-10.8,10.8-10.8h23.5c1.7,0,3.2-1.4,3.2-3.1c0-1.7-1.4-3.2-3.2-3.2
		H32.6c-9.4,0-17.1,7.7-17.1,17.1v55.8c0,9.4,7.7,17.1,17.1,17.1h23.1c1.7,0,3.2-1.4,3.2-3.1C58.9,85.1,57.5,83.7,55.8,83.7z"/>
</g>
</svg>
