<?xml version="1.0" encoding="utf-8"?>
<!-- Generator: Adobe Illustrator 21.1.0, SVG Export Plug-In . SVG Version: 6.00 Build 0)  -->
<svg version="1.1" id="Layer_1" xmlns="http://www.w3.org/2000/svg" xmlns:xlink="http://www.w3.org/1999/xlink" x="0px" y="0px"
	 viewBox="0 0 90 90" style="enable-background:new 0 0 90 90;" xml:space="preserve">
	 <style type="text/css">
		svg#Layer_1 {fill: #484848;}
	</style>
<g>
	<polygon points="65.5,19.8 65.6,20.4 64.6,20.6 64.5,22.1 65.7,22.1 67.3,21.9 68.1,20.9 67.2,20.6 66.7,20 66,18.9 65.7,17.2 
		64.3,17.5 63.9,18.1 63.9,18.7 64.6,19.2 	"/>
	<polygon points="64.4,20.3 64.4,19.4 63.7,19.1 62.5,19.3 61.7,20.6 61.7,21.5 62.7,21.5 	"/>
	<path d="M41.5,24.1l-0.2,0.6h-1.2v0.6h0.3c0,0,0,0.1,0,0.3l0.7-0.1l0.5-0.3l0.1-0.6l0.6,0l0.2-0.5L42,24.1L41.5,24.1z"/>
	<polygon points="38.5,25.2 38.4,25.8 39.3,25.7 39.4,25.1 38.9,24.7 	"/>
	<path d="M89.9,44.3c0-1.3-0.1-2.6-0.2-3.9c-0.4-4.3-1.4-8.4-3-12.3c-0.1-0.3-0.2-0.6-0.3-0.9c-2-4.8-4.9-9.2-8.4-13
		c-0.2-0.2-0.5-0.5-0.7-0.7c-0.7-0.7-1.3-1.4-2.1-2c-8-7.3-18.6-11.7-30.3-11.7c-11.7,0-22.5,4.5-30.5,11.9
		c-1.9,1.7-3.6,3.6-5.1,5.6c-5.9,7.6-9.4,17.1-9.4,27.5c0,24.8,20.2,45,45,45c17.5,0,32.6-10,40.1-24.6c1.6-3.1,2.8-6.4,3.7-9.9
		c0.2-0.9,0.4-1.8,0.6-2.7c0.5-2.5,0.7-5.2,0.7-7.9C89.9,44.6,89.9,44.4,89.9,44.3z M81.5,26.3l0.3-0.3c0.3,0.7,0.7,1.3,1,2l-0.4,0
		l-0.8,0.1V26.3z M75,18.4l0-2c0.7,0.7,1.4,1.5,2,2.3L76.2,20l-2.8,0l-0.2-0.6L75,18.4z M20.7,13.4L20.7,13.4l0.9-0.1l0.1-0.3h1.5
		v0.6l-0.4,0.6h-2V13.4z M22.1,15.4c0,0,0.9-0.2,1-0.2c0.1,0,0,0.9,0,0.9l-2,0.1l-0.4-0.5L22.1,15.4z M84.3,33.3H81l-2-1.5L76.9,32
		v1.3h-0.7l-0.7-0.5l-3.7-0.9v-2.4l-4.6,0.4l-1.4,0.8H64l-0.9-0.1l-2.2,1.2v2.3l-4.6,3.3l0.4,1.4h0.9l-0.2,1.3l-0.7,0.2l0,3.5
		l3.9,4.5h1.7l0.1-0.3h3.1l0.9-0.8h1.8l1,1l2.6,0.3L71.4,52l2.9,5.1L72.7,60l0.1,1.4l1.2,1.2v3.3l1.6,2.1v2.7H77
		C69.4,80.1,57.9,86,44.9,86C22.2,86,3.7,67.5,3.7,44.7c0-5.7,1.2-11.2,3.3-16.2c0.5-1.1,1-2.1,1.5-3.1c0.5-1,1.1-1.9,1.6-2.8
		l0.1,0.7l-1.7,2.1c-0.5,1-1,2-1.5,3.1v2.3l1.7,0.8V35l1.6,2.8l1.3,0.2l0.2-1l-1.6-2.4l-0.3-2.4h0.9l0.4,2.4l2.3,3.3l-0.6,1.1
		l1.5,2.2l3.6,0.9v-0.6l1.4,0.2l-0.1,1l1.1,0.2l1.7,0.5l2.5,2.8l3.2,0.2l0.3,2.6L26,50.7L25.9,53l-0.3,1.4l3.1,3.9l0.2,1.3
		c0,0,1.1,0.3,1.3,0.3c0.1,0,2.5,1.8,2.5,1.8v7.1l0.9,0.2L33,72.3l1.4,1.9l-0.3,3.2l1.9,3.4l2.4,2.1l2.5,0l0.2-0.8l-1.8-1.5l0.1-0.7
		l0.3-0.9l0.1-0.9l-1.2,0l-0.6-0.8l1-1l0.1-0.7l-1.1-0.3l0.1-0.7l1.6-0.2l2.5-1.2l0.8-1.5l2.6-3.3L45,65.8l0.8-1.4l2.4,0.1l1.6-1.3
		l0.5-5l1.8-2.2l0.3-1.4L50.8,54l-1.1-1.7l-3.6,0l-2.9-1.1L43,49.1l-1-1.7l-2.6,0L38,45l-1.3-0.7l-0.1,0.7l-2.4,0.1L33.2,44
		l-2.5-0.5l-2.1,2.4l-3.3-0.6l-0.2-3.7l-2.4-0.4l1-1.8l-0.3-1l-3.2,2.1l-2-0.2l-0.7-1.6l0.4-1.6l1.1-2l2.5-1.3h4.9l0,1.5l1.8,0.8
		L28,33.5l1.3-1.3l2.5-1.7l0.2-1.2l2.5-2.6l2.7-1.5L37,25l1.8-1.7l0.7,0.2l0.3,0.4l0.7-0.8l0.2-0.1l-0.8-0.1l-0.8-0.3v-0.7l0.4-0.3
		h0.9l0.4,0.2l0.4,0.7l0.4-0.1v-0.1l0.1,0l1.3-0.2l0.2-0.6l0.7,0.2v0.7l-0.7,0.5l0.1,0.7l2.3,0.7l0,0l0.5,0l0-1l-1.8-0.8L44.3,22
		l1.5-0.5l0.1-1.4l-1.6-1l-0.1-2.4l-2.2,1.1h-0.8l0.2-1.9l-2.9-0.7l-1.2,0.9v2.8l-2.2,0.7l-0.9,1.8l-1,0.2v-2.3L31.2,19l-1-0.7
		l-0.4-1.5l3.7-2.2l1.8-0.6l0.2,1.2l1,0l0.1-0.6l1.1-0.1l0-0.2l-0.5-0.2L37,13.4l1.3-0.1l0.8-0.8l0-0.1h0l0.2-0.2l2.7-0.3l1.2,1
		l-3.1,1.7l4,0.9l0.5-1.3h1.7l0.6-1.2l-1.2-0.3v-1.5l-3.9-1.7l-2.7,0.3l-1.5,0.8l0.1,1.9l-1.6-0.2L36,11.2l1.5-1.4l-2.7-0.1L34,10
		l-0.3,0.9l1,0.2l-0.2,1l-1.8,0.1l-0.3,0.7l-2.5,0.1c0,0-0.1-1.4-0.2-1.4c-0.1,0,2,0,2,0l1.5-1.5l-0.8-0.4l-1.1,1.1l-1.8-0.1L28.4,9
		h-2.3l-2.4,1.8h2.2l0.2,0.7L25.5,12l2.5,0.1l0.4,0.9l-2.8-0.1l-0.1-0.7l-1.7-0.4l-0.9-0.5l-2.1,0c6.8-5,15.2-7.9,24.3-7.9
		c10.4,0,20,3.9,27.3,10.3l-0.5,0.9l-1.9,0.8L69,16.2l0.2,1l1,0.1l0.6,1.5l1.7-0.7l0.3,2h-0.5L70.8,20l-1.5,0.3l-1.5,2.1l-2.1,0.3
		l-0.3,1.8l0.9,0.2L66,25.9l-2.1-0.4l-1.9,0.4L61.5,27l0.3,2.3l1.1,0.5l1.9,0l1.3-0.1l0.4-1l2-2.6l1.3,0.3l1.3-1.2l0.2,0.9l3.2,2.2
		l-0.4,0.5l-1.5-0.1l0.6,0.8l0.9,0.2l1-0.4l0-1.3l0.5-0.2l-0.4-0.4l-2.2-1.2l-0.6-1.6h1.8l0.6,0.6l1.5,1.3l0.1,1.6l1.6,1.7l0.6-2.3
		l1.1-0.6l0.2,1.9l1.1,1.2l2.2,0c0.4,1.1,0.8,2.2,1.1,3.3L84.3,33.3z M24.5,20.2l1.1-0.5l1,0.2l-0.3,1.3l-1.1,0.3L24.5,20.2z
		 M30.2,23.3v0.8h-2.5l-0.9-0.3l0.2-0.6l1.2-0.5h1.6v0.5H30.2z M31.4,24.5v0.8l-0.6,0.4L30,25.8v-1.4H31.4z M30.7,24.1v-1l0.9,0.8
		L30.7,24.1z M31.1,26.1v0.8l-0.6,0.6h-1.3l0.2-0.9l0.6-0.1l0.1-0.3L31.1,26.1z M27.8,24.5h1.4l-1.7,2.4l-0.7-0.4l0.2-1L27.8,24.5z
		 M33.4,25.8v0.8h-1.3l-0.4-0.5v-0.7h0.1L33.4,25.8z M32.2,24.7l0.4-0.4l0.6,0.4l-0.5,0.4L32.2,24.7z M85,35.4l0.1-0.1
		c0.1,0.2,0.1,0.5,0.2,0.7L85,35.4z"/>
</g>
</svg>
