<?xml version="1.0" encoding="utf-8"?>
<!-- Generator: Adobe Illustrator 21.1.0, SVG Export Plug-In . SVG Version: 6.00 Build 0)  -->
<svg version="1.1" id="Layer_1" xmlns="http://www.w3.org/2000/svg" xmlns:xlink="http://www.w3.org/1999/xlink" x="0px" y="0px"
	 viewBox="0 0 15 10.1" style="enable-background:new 0 0 15 10.1;" xml:space="preserve">
	<style>
		svg#Layer_1 {fill: #0082c2}
	</style>
<path d="M0.3,0.3c0.1,0,0.2,0.1,0.3,0.2c0,0.1,1,2.2,4.4,2.6c0.7,0.1,1.6,0.1,2.6,0.1V0.6c0-0.1,0.1-0.2,0.2-0.3
	c0.1-0.1,0.2,0,0.3,0l6.7,4.5C14.9,4.9,15,5,15,5.1c0,0.1-0.1,0.2-0.1,0.3L8.2,9.9C8.1,9.9,8,10,7.9,9.9C7.8,9.8,7.7,9.7,7.7,9.6
	V7.2C6.2,7,0,5.9,0,0.6C0,0.5,0.1,0.3,0.3,0.3C0.3,0.3,0.3,0.3,0.3,0.3L0.3,0.3z M0.3,0.3"/>
</svg>
