<?xml version="1.0" encoding="utf-8"?>
<!-- Generator: Adobe Illustrator 21.1.0, SVG Export Plug-In . SVG Version: 6.00 Build 0)  -->
<svg version="1.1" id="Layer_1" xmlns="http://www.w3.org/2000/svg" xmlns:xlink="http://www.w3.org/1999/xlink" x="0px" y="0px"
	 viewBox="0 0 13 8.4" style="enable-background:new 0 0 13 8.4;" xml:space="preserve">
	  <style>
	 svg#Layer_1 {fill: #FFFFFF}
	 </style>
<g>
	<path d="M2.3,4.1h8.5c0.5,0,0.9-0.4,0.9-0.9V2.5c0-0.5-0.4-0.9-0.9-0.9H2.3C1.8,1.5,1.3,2,1.3,2.5v0.7C1.3,3.7,1.8,4.1,2.3,4.1z
		 M10.7,2.5v0.7L2.3,3.2L2.3,2.5L10.7,2.5z"/>
	<path d="M11.3,4.4H7.9c-0.1,0-0.2,0-0.3,0.1C7.5,4.5,7.4,4.4,7.3,4.4H5.9c-0.1,0-0.2,0-0.3,0.1C5.5,4.5,5.4,4.4,5.3,4.4H1.7
		c-0.3,0-0.5,0.2-0.5,0.5c0,0.3,0.2,0.5,0.5,0.5h3.6c0.1,0,0.2,0,0.3-0.1c0.1,0.1,0.2,0.1,0.3,0.1h1.4c0.1,0,0.2,0,0.3-0.1
		c0.1,0.1,0.2,0.1,0.3,0.1h3.4c0.3,0,0.5-0.2,0.5-0.5C11.8,4.7,11.6,4.4,11.3,4.4z"/>
	<path d="M11.2,0H1.8C0.8,0,0,0.8,0,1.9v4.7c0,1,0.8,1.8,1.8,1.8h9.3c1,0,1.8-0.8,1.8-1.8V1.9C13,0.8,12.2,0,11.2,0z M12,6.6
		c0,0.5-0.4,0.8-0.8,0.8H1.8C1.4,7.4,1,7,1,6.6V1.9C1,1.4,1.4,1,1.8,1h9.3C11.6,1,12,1.4,12,1.9V6.6z"/>
</g>
</svg>
