<?xml version="1.0" encoding="utf-8"?>
<!-- Generator: Adobe Illustrator 21.1.0, SVG Export Plug-In . SVG Version: 6.00 Build 0)  -->
<svg version="1.1" id="Layer_1" xmlns="http://www.w3.org/2000/svg" xmlns:xlink="http://www.w3.org/1999/xlink" x="0px" y="0px"
	 viewBox="0 0 10.6 13.3" style="enable-background:new 0 0 10.6 13.3;" xml:space="preserve">
	<style>
		svg#Layer_1{fill:#FFFFFF;}
	</style>
<g>
	<circle class="st0" cx="10" cy="9.1" r="0.4"/>
	<circle class="st0" cx="5.1" cy="4.3" r="0.2"/>
	<circle class="st0" cx="0.4" cy="9.1" r="0.4"/>
	<path class="st0" d="M10.3,12.3H9.2l0-6.1c0-0.2-0.1-0.3-0.3-0.3C8.8,5.9,8.7,6,8.6,6C8.6,6.1,8.5,6.2,8.5,6.3l0,6.1H8l0-2.7
		c0-0.2-0.1-0.3-0.3-0.3c-0.2,0-0.3,0.1-0.3,0.3l0,2.7H6.9V9.2c0.7-0.1,1.3-0.7,1.3-1.4V5.3c0-0.4-0.1-0.7-0.2-1
		c0.4,0.1,0.8,0.2,1.1,0.5c0.4,0.4,0.6,0.8,0.6,1.3l0,1.4c0,0.2,0.1,0.3,0.3,0.3c0.2,0,0.3-0.1,0.3-0.3l0-1.4c0-0.7-0.3-1.3-0.8-1.8
		C9.3,4.1,9,3.9,8.7,3.8C8.9,3.5,9,3.2,9,2.9c0-0.8-0.6-1.4-1.4-1.4C7.4,1.5,7.2,1.5,7,1.6c-0.1,0-0.1,0.1-0.2,0.2
		c0,0.1,0,0.2,0,0.3c0,0.1,0.1,0.1,0.2,0.2c0.1,0,0.2,0,0.3,0c0.1-0.1,0.2-0.1,0.3-0.1c0,0,0,0,0,0c0.4,0,0.7,0.3,0.7,0.7
		c0,0.4-0.3,0.7-0.7,0.8c0,0,0,0,0,0c0,0,0,0,0,0c-0.3-0.5-0.8-0.8-1.3-1C6.5,2.3,6.7,2,6.7,1.5C6.7,0.7,6,0,5.1,0
		C4.3,0,3.6,0.7,3.6,1.5C3.6,2,3.7,2.4,4,2.7C3.6,2.9,3.1,3.2,2.8,3.6c0,0-0.1,0-0.1,0H2.7c-0.4,0-0.7-0.3-0.7-0.7
		c0-0.4,0.3-0.7,0.7-0.7c0.1,0,0.2,0,0.4,0.1c0.1,0,0.2,0.1,0.2,0c0.1,0,0.2-0.1,0.2-0.2c0-0.1,0.1-0.2,0-0.3c0-0.1-0.1-0.2-0.2-0.2
		C3.1,1.5,2.9,1.5,2.7,1.5c-0.8,0-1.4,0.6-1.4,1.4c0,0.4,0.1,0.7,0.4,1c-1,0.4-1.6,1.3-1.6,2.3v1.4c0,0.2,0.1,0.3,0.3,0.3
		s0.3-0.1,0.3-0.3V6.2c0-0.9,0.7-1.8,1.7-1.9C2.3,4.6,2.2,5,2.2,5.3v2.4c0,0.7,0.6,1.4,1.3,1.4v3.2H3V9.7c0-0.2-0.1-0.3-0.3-0.3
		S2.4,9.5,2.4,9.7v2.7H1.9V6.3c0-0.2-0.1-0.3-0.3-0.3S1.3,6.1,1.3,6.3v6.1H0.3c-0.2,0-0.3,0.1-0.3,0.3S0.1,13,0.3,13h10
		c0.2,0,0.3-0.1,0.3-0.3S10.5,12.3,10.3,12.3z M5.2,8.6C5,8.6,4.8,8.7,4.8,8.9v3.4H4.2V5.4c0-0.2-0.1-0.3-0.3-0.3S3.6,5.2,3.6,5.4
		v3.1C3.2,8.4,2.9,8.1,2.9,7.7V5.3c0-0.4,0.1-0.8,0.4-1.2c0.4-0.6,1.1-1,1.9-1c0.8,0,1.5,0.4,1.9,1c0.2,0.4,0.4,0.8,0.4,1.2v2.4
		c0,0.4-0.3,0.7-0.6,0.8V5.4c0-0.2-0.1-0.3-0.3-0.3S6.2,5.2,6.2,5.4v6.9H5.5V8.9C5.5,8.7,5.3,8.6,5.2,8.6z M5.1,2.4
		C4.6,2.4,4.2,2,4.2,1.5s0.4-0.9,0.9-0.9S6,1.1,6,1.5S5.6,2.4,5.1,2.4z"/>
	<path class="st0" d="M5.1,4.6C5,4.6,4.9,4.7,4.9,4.8v1.6c0,0.1,0.1,0.2,0.2,0.2c0.1,0,0.2-0.1,0.2-0.2V4.8C5.3,4.7,5.2,4.6,5.1,4.6
		z"/>
</g>
</svg>
