<?xml version="1.0" encoding="utf-8"?>
<!-- Generator: Adobe Illustrator 21.1.0, SVG Export Plug-In . SVG Version: 6.00 Build 0)  -->
<svg version="1.1" id="Layer_1" xmlns="http://www.w3.org/2000/svg" xmlns:xlink="http://www.w3.org/1999/xlink" x="0px" y="0px"
	 viewBox="0 0 26.6 30" style="enable-background:new 0 0 26.6 30;" xml:space="preserve">
	 <style type="text/css">
	svg#Layer_1 {fill: #FFFFFF;}
</style>
<g>
	<path d="M22.8,3.8C23.5,3.5,24,2.8,24,2c0-1.1-0.9-2-2-2s-2,0.9-2,2c0,0.3,0.1,0.6,0.2,0.8C18,2.1,12.5,1.2,9.3,8.3
		c-4.2,9.2-7.8,9.9-9.2,10.4l23.3,10.6c0,0-1.2-5.8,0.4-9.9C25.4,15.6,29.8,7.3,22.8,3.8z M22.1,1c0.6,0,1,0.5,1,1s-0.5,1-1,1
		s-1-0.5-1-1S21.5,1,22.1,1z"/>
	<path d="M13,29.7c1.9,0.9,4.2,0,5.1-2l-7-3.1C10.2,26.6,11.1,28.8,13,29.7z"/>
</g>
</svg>
