<?xml version="1.0" encoding="iso-8859-1"?>
<!-- Generator: Adobe Illustrator 21.1.0, SVG Export Plug-In . SVG Version: 6.00 Build 0)  -->
<svg version="1.1" id="Layer_1" xmlns="http://www.w3.org/2000/svg" xmlns:xlink="http://www.w3.org/1999/xlink" x="0px" y="0px"
	 viewBox="162 352 90 90" style="enable-background:new 162 352 90 90;" xml:space="preserve">
	 <style>
		svg#Layer_1 {fill: #0082c2;}
	 </style>
<g>
	<path d="M246.13,369.529h-6.551c0.864-1.368,1.434-2.903,1.597-4.526c0.52-5.189-2.213-9.84-6.865-11.902
		c-4.276-1.895-9.081-1.121-12.542,2.018l-8.272,7.497c-1.611-1.762-3.927-2.869-6.497-2.869c-2.575,0-4.894,1.111-6.506,2.878
		l-8.283-7.507c-3.466-3.138-8.269-3.91-12.543-2.016c-4.651,2.062-7.384,6.715-6.863,11.903c0.163,1.622,0.733,3.157,1.597,4.523
		h-6.532c-3.242,0-5.87,2.628-5.87,5.87v8.804c0,1.621,1.314,2.935,2.935,2.935h84.13c1.621,0,2.935-1.314,2.935-2.935v-8.804
		C252,372.157,249.372,369.529,246.13,369.529z M225.574,359.59c1.504-1.363,3.608-1.999,5.552-1.419
		c2.791,0.832,4.43,3.206,4.226,6.053c-0.219,3.05-2.974,5.306-6.032,5.306h-13.516v-0.978c0-0.035-0.002-0.069-0.003-0.104
		C218.05,366.409,222.928,361.988,225.574,359.59z M178.782,362.331c0.401-1.673,1.609-3.098,3.17-3.82
		c2.144-0.991,4.519-0.673,6.32,0.957l9.926,8.997c0,0.029-0.002,0.058-0.002,0.086v0.978h-13.806
		C180.742,369.529,177.871,366.129,178.782,362.331z"/>
	<path d="M167.87,436.051c0,3.242,2.628,5.87,5.87,5.87h27.391v-48.913H167.87V436.051z"/>
	<path d="M212.87,441.921h27.391c3.242,0,5.87-2.628,5.87-5.87v-43.043H212.87V441.921z"/>
</g>
</svg>
