<svg id="Layer_1" data-name="Layer 1" xmlns="http://www.w3.org/2000/svg" viewBox="0 0 24 24"><defs><style>.cls-1{fill:none;stroke:#FFFFFF;stroke-linecap:round;stroke-linejoin:round;stroke-width:0.75px;}</style></defs><title>icon quà</title><rect class="cls-1" x="13.97" y="8" width="9.48" height="15.61" rx="0.94" ry="0.94"/><rect class="cls-1" x="0.55" y="8" width="9.48" height="15.61" rx="0.94" ry="0.94"/><path class="cls-1" d="M9.66,2.34c1,2.11,3,4.33,2,4-1.42-.45-5.07,0-6.86-2.16-.83-1-1.06-2.88.75-3.58A3.37,3.37,0,0,1,9.66,2.34Z"/><path class="cls-1" d="M14,2.34c-1,2.11-3,4.33-2,4,1.42-.45,5.07,0,6.86-2.16.83-1,1.06-2.88-.75-3.58A3.37,3.37,0,0,0,14,2.34Z"/></svg>