<?xml version="1.0" encoding="utf-8"?>
<!-- Generator: Adobe Illustrator 21.1.0, SVG Export Plug-In . SVG Version: 6.00 Build 0)  -->
<svg version="1.1" id="Layer_1" xmlns="http://www.w3.org/2000/svg" xmlns:xlink="http://www.w3.org/1999/xlink" x="0px" y="0px"
	 viewBox="0 0 70.4 90" style="enable-background:new 0 0 70.4 90;" xml:space="preserve">
	  <style type="text/css">
		svg#Layer_1 {fill: #484848;}
	</style>
<path d="M35,50.1c-4.7,0-8.3,3.7-8.3,8.3c0,2.7,1.3,5,3.3,6.7v6.7c0,2.7,2.3,5,5,5c2.7,0,5-2.3,5-5v-6.7c2-1.7,3.3-4,3.3-6.7
	C43.3,53.8,39.7,50.1,35,50.1L35,50.1z M36.7,63.1v8.7c0,1-0.7,1.7-1.7,1.7c-1,0-1.7-0.7-1.7-1.7v-8.7c-2-0.7-3.3-2.7-3.3-4.7
	c0-2.7,2.3-5,5-5c2.7,0,5,2.3,5,5C40,60.8,38.7,62.4,36.7,63.1L36.7,63.1z M36.7,63.1"/>
<path d="M60.2,36.7V25c0-13.7-11.3-25-25-25c-13.7,0-25,11.3-25,25v11.7c-5.7,0-10,4.3-10,10V80c0,5.7,4.3,10,10,10h50
	c5.7,0,10-4.3,10-10V46.7C70.2,41.3,65.9,36.7,60.2,36.7L60.2,36.7z M13.5,25c0-12,9.7-21.7,21.7-21.7c12,0,21.7,9.7,21.7,21.7v11.7
	h-3.3V25c0-10-8.3-18.3-18.3-18.3c-10,0-18.3,8.3-18.3,18.3v11.7h-3.3V25z M50.2,25v11.7h-30V25c0-8.3,6.7-15,15-15
	C43.5,10,50.2,16.7,50.2,25L50.2,25z M66.9,80c0,3.7-3,6.7-6.7,6.7h-50c-3.7,0-6.7-3-6.7-6.7V46.7c0-3.7,3-6.7,6.7-6.7h50
	c3.7,0,6.7,3,6.7,6.7V80z M66.9,80"/>
</svg>
