<?xml version="1.0" encoding="utf-8"?>
<!-- Generator: Adobe Illustrator 21.1.0, SVG Export Plug-In . SVG Version: 6.00 Build 0)  -->
<svg version="1.1" id="Layer_1" xmlns="http://www.w3.org/2000/svg" xmlns:xlink="http://www.w3.org/1999/xlink" x="0px" y="0px"
	 viewBox="0 0 20 20" style="enable-background:new 0 0 20 20;" xml:space="preserve">
	 <style>
		svg#Layer_1 {fill: #8f9090;}
	 </style>
<g>
	<g>
		<path d="M8,16c-4.4,0-8-3.6-8-8s3.6-8,8-8s8,3.6,8,8S12.4,16,8,16z M8,2C4.7,2,2,4.7,2,8s2.7,6,6,6s6-2.7,6-6S11.3,2,8,2z"/>
	</g>
	<path d="M18.3,19.7L12,13.4c-0.4-0.4,0.2-0.4,0.7-0.9s0.3-0.9,0.7-0.5l6.3,6.3c0.4,0.4,0.4,1,0,1.4l0,0
		C19.3,20.1,18.6,20.1,18.3,19.7z"/>
</g>
</svg>
