<?xml version="1.0" encoding="utf-8"?>
<!-- Generator: Adobe Illustrator 21.1.0, SVG Export Plug-In . SVG Version: 6.00 Build 0)  -->
<svg version="1.1" id="Layer_1" xmlns="http://www.w3.org/2000/svg" xmlns:xlink="http://www.w3.org/1999/xlink" x="0px" y="0px"
	 viewBox="0 0 90 90" style="enable-background:new 0 0 90 90;" xml:space="preserve">
<style type="text/css">
	.st0{clip-path:url(#SVGID_2_);}
	svg#Layer_1 {fill: #8f9090;}
</style>
<g>
	<g>
		<defs>
			<rect id="SVGID_1_" x="-0.5" y="0.4" width="89.8" height="90"/>
		</defs>
		<clipPath id="SVGID_2_">
			<use xlink:href="#SVGID_1_"  style="overflow:visible;"/>
		</clipPath>
		<path class="st0" d="M84.7,35.8l-6.3-1.1c-0.7-2.1-1.5-4.2-2.5-6.1l3.7-5.2c1.6-2.2,1.3-5.2-0.6-7.1l-5.6-5.6
			c-1.1-1.1-2.4-1.6-3.9-1.6c-1.2,0-2.3,0.4-3.2,1l-5.2,3.7c-2-1.1-4.1-2-6.3-2.6L53.7,5c-0.5-2.7-2.8-4.6-5.5-4.6h-7.9
			c-2.7,0-5,2-5.5,4.6l-1.1,6.4c-2.1,0.7-4.1,1.5-6.1,2.6l-5.2-3.7c-0.9-0.7-2.1-1-3.2-1c-1.5,0-2.9,0.6-3.9,1.6l-5.6,5.6
			c-1.9,1.9-2.2,4.9-0.6,7.1l3.8,5.3c-1,2-1.9,4-2.5,6.1l-6.2,1c-2.7,0.5-4.6,2.8-4.6,5.5v7.9c0,2.7,2,5,4.6,5.5l6.4,1.1
			c0.7,2.1,1.5,4.1,2.6,6.1l-3.7,5.1c-1.6,2.2-1.3,5.2,0.6,7.1l5.6,5.6c1.1,1.1,2.4,1.6,3.9,1.6c1.2,0,2.3-0.4,3.2-1l5.3-3.8
			c1.9,1,3.9,1.8,5.9,2.4l1.1,6.3c0.5,2.7,2.8,4.6,5.5,4.6h7.9c2.7,0,5-2,5.5-4.6l1.1-6.3c2.1-0.7,4.2-1.5,6.1-2.5l5.2,3.7
			c0.9,0.7,2.1,1,3.2,1c1.5,0,2.9-0.6,3.9-1.6l5.6-5.6c1.9-1.9,2.2-4.9,0.6-7.1l-3.7-5.2c1-2,1.9-4,2.5-6.1l6.3-1.1
			c2.7-0.4,4.6-2.8,4.6-5.5v-7.9C89.4,38.6,87.4,36.3,84.7,35.8L84.7,35.8z M84.3,49.2c0,0.2-0.2,0.4-0.4,0.5L76,51
			c-1,0.2-1.8,0.9-2,1.9c-0.7,2.8-1.8,5.4-3.3,7.9c-0.5,0.9-0.5,1.9,0.1,2.8l4.6,6.5c0.1,0.2,0.1,0.5-0.1,0.6l-5.6,5.6
			c-0.1,0.1-0.3,0.1-0.4,0.1c-0.1,0-0.2,0-0.3-0.1l-6.5-4.6c-0.8-0.6-1.9-0.6-2.8-0.1c-2.5,1.5-5.1,2.6-7.9,3.3
			c-1,0.2-1.7,1.1-1.9,2l-1.3,7.9c0,0.2-0.2,0.4-0.5,0.4h-7.9c-0.2,0-0.5-0.2-0.5-0.4l-1.3-7.9c-0.2-1-0.9-1.8-1.9-2
			c-2.7-0.7-5.3-1.8-7.7-3.2c-0.4-0.2-0.8-0.3-1.3-0.3c-0.5,0-1,0.2-1.5,0.5l-6.6,4.7c-0.1,0.1-0.2,0.1-0.3,0.1
			c-0.1,0-0.2,0-0.4-0.2l-5.6-5.6c-0.2-0.2-0.2-0.4-0.1-0.6l4.6-6.5c0.6-0.8,0.6-1.9,0.1-2.8c-1.5-2.4-2.6-5.1-3.3-7.8
			c-0.3-1-1.1-1.7-2-1.9L5,49.9c-0.2,0-0.4-0.2-0.4-0.5v-7.9C4.6,41.2,4.7,41,5,41l7.8-1.3c1-0.2,1.8-0.9,2-1.9
			c0.7-2.8,1.8-5.4,3.2-7.9c0.5-0.9,0.4-1.9-0.1-2.7l-4.7-6.6c-0.1-0.2-0.1-0.5,0.1-0.6l5.6-5.6c0.1-0.1,0.3-0.2,0.4-0.2
			c0.1,0,0.2,0,0.3,0.1L26,19c0.8,0.6,1.9,0.6,2.8,0.1c2.4-1.5,5.1-2.6,7.8-3.3c1-0.3,1.7-1.1,1.9-2l1.4-7.9c0-0.2,0.2-0.4,0.5-0.4
			h7.9c0.2,0,0.4,0.2,0.5,0.4l1.3,7.8c0.2,1,0.9,1.8,1.9,2c2.8,0.7,5.5,1.8,8,3.3c0.9,0.5,1.9,0.5,2.8-0.1l6.5-4.7
			c0.1-0.1,0.2-0.1,0.3-0.1c0.1,0,0.2,0,0.4,0.2l5.6,5.6c0.2,0.2,0.2,0.4,0.1,0.6L70.8,27c-0.6,0.8-0.6,1.9-0.1,2.8
			c1.5,2.5,2.6,5.1,3.3,7.9c0.2,1,1,1.7,2,1.9l7.9,1.3c0.2,0,0.4,0.2,0.4,0.5L84.3,49.2L84.3,49.2z M84.3,49.2"/>
	</g>
	<path d="M44.4,25.9C33.7,25.9,25,34.5,25,45.2c0,10.7,8.7,19.4,19.4,19.4c10.7,0,19.4-8.7,19.4-19.4C63.8,34.5,55.1,25.9,44.4,25.9
		L44.4,25.9z M44.4,59.6c-7.9,0-14.3-6.4-14.3-14.3c0-7.9,6.4-14.3,14.3-14.3c7.9,0,14.3,6.4,14.3,14.3
		C58.7,53.1,52.3,59.6,44.4,59.6L44.4,59.6z M44.4,59.6"/>
</g>
</svg>
