<?xml version="1.0" encoding="iso-8859-1"?>
<!-- Generator: Adobe Illustrator 21.1.0, SVG Export Plug-In . SVG Version: 6.00 Build 0)  -->
<svg version="1.1" id="Layer_1" xmlns="http://www.w3.org/2000/svg" xmlns:xlink="http://www.w3.org/1999/xlink" x="0px" y="0px"
	 viewBox="162 352 90 90" style="enable-background:new 162 352 90 90;" xml:space="preserve">
<path d="M162,442v-10.764c0-13.755,5.287-26.687,14.886-36.413c8.955-9.073,20.663-14.344,33.215-15.011V352L252,394.453
	l-41.899,42.453v-28.102c-1.054-0.075-2.112-0.113-3.164-0.113c-16.594,0-31.855,9.147-39.827,23.871L162,442z M206.937,403.174
	c2.074,0,4.167,0.131,6.222,0.389l2.388,0.3v19.723l28.752-29.133l-28.752-29.133v19.937h-2.723
	c-21.476,0-39.515,15.194-44.197,35.529C178.169,409.727,192.076,403.174,206.937,403.174z"/>
</svg>
