<?xml version="1.0" encoding="utf-8"?>
<!-- Generator: Adobe Illustrator 21.1.0, SVG Export Plug-In . SVG Version: 6.00 Build 0)  -->
<svg version="1.1" id="Layer_1" xmlns="http://www.w3.org/2000/svg" xmlns:xlink="http://www.w3.org/1999/xlink" x="0px" y="0px"
	 viewBox="0 0 12.1 13" style="enable-background:new 0 0 12.1 13;" xml:space="preserve">
	 <style>
	 svg#Layer_1 {fill: #FFFFFF}
	 </style>
<g>
	<path d="M10.7,4.7H1.4C0.6,4.7,0,5.3,0,6.1v5.5C0,12.4,0.6,13,1.4,13h9.2c0.8,0,1.4-0.6,1.4-1.4V6.1C12.1,5.3,11.4,4.7,10.7,4.7z
		 M11.1,11.6c0,0.2-0.2,0.4-0.4,0.4H1.4C1.2,12,1,11.8,1,11.6V6.1c0-0.2,0.2-0.4,0.4-0.4h9.2c0.2,0,0.4,0.2,0.4,0.4V11.6z"/>
	<path d="M1,4.2h10.2c0.4,0,0.7-0.3,0.7-0.7V2.6c0-0.4-0.3-0.7-0.7-0.7h-0.6V0.4c0-0.2-0.2-0.4-0.4-0.4H8.1C7.9,0,7.7,0.2,7.7,0.4
		v1.5H4.3V0.4C4.3,0.2,4.2,0,4,0H1.9C1.7,0,1.5,0.2,1.5,0.4v1.5H1c-0.4,0-0.7,0.3-0.7,0.7v0.9C0.2,3.9,0.5,4.2,1,4.2z M11.1,3.5
		C11.1,3.5,11.1,3.5,11.1,3.5v0.4V3.5z M8.5,0.7h1.4v1.1H8.5V0.7z M2.3,0.7h1.3v1.1H2.3V0.7z M1.9,2.6C1.9,2.6,1.9,2.6,1.9,2.6
		l2.1,0c0,0,0,0,0,0l4.1,0c0,0,0,0,0,0h2.1c0,0,0,0,0,0l0.9,0l0,0.9L1,3.5l0-0.9L1.9,2.6z"/>
	<path d="M8.7,7.8L7.2,7.5L6.5,6.1c-0.2-0.3-0.7-0.3-0.9,0L4.9,7.5L3.4,7.8C3.2,7.8,3,7.9,3,8.1c-0.1,0.2,0,0.4,0.1,0.5l1.1,1.1
		l-0.3,1.5c0,0.2,0,0.4,0.2,0.5c0.1,0.1,0.2,0.1,0.3,0.1c0.1,0,0.2,0,0.2-0.1L6,11l1.4,0.7c0.2,0.1,0.4,0.1,0.5,0
		c0.2-0.1,0.2-0.3,0.2-0.5L7.9,9.7L9,8.6c0.1-0.1,0.2-0.3,0.1-0.5C9.1,7.9,8.9,7.8,8.7,7.8z M7,9.2C6.9,9.3,6.8,9.5,6.9,9.6L7,10.4
		L6.3,10C6.1,10,6,10,5.8,10l-0.7,0.4l0.1-0.8c0-0.2,0-0.3-0.1-0.4L4.5,8.6l0.8-0.1c0.2,0,0.3-0.1,0.4-0.3L6,7.5l0.4,0.7
		c0.1,0.1,0.2,0.2,0.4,0.3l0.8,0.1L7,9.2z"/>
</g>
</svg>
