<?xml version="1.0" encoding="utf-8"?>
<!-- Generator: Adobe Illustrator 21.1.0, SVG Export Plug-In . SVG Version: 6.00 Build 0)  -->
<svg version="1.1" id="Layer_1" xmlns="http://www.w3.org/2000/svg" xmlns:xlink="http://www.w3.org/1999/xlink" x="0px" y="0px"
	 viewBox="0 0 20.4 16" style="enable-background:new 0 0 20.4 16;" xml:space="preserve">
	 <style>
		svg#Layer_1 {fill: #48bb2e;}
	 </style>
<g>
	<path d="M0.7,15.6c-0.4,0-0.7-0.3-0.7-0.7V0.7C0,0.3,0.3,0,0.7,0h16.1c0.4,0,0.7,0.3,0.7,0.7v7.8h-1.7V1.7H1.7v9.4h0.8L5.8,6L8,9.4
		l1,1.7h0.9L8.4,8.7l1-1.6l2.6,4h1v3.6h2.4v0.9H0.7L0.7,15.6z"/>
	<path d="M14.5,4.9c0,0.8-0.7,1.5-1.5,1.5s-1.5-0.7-1.5-1.5s0.7-1.5,1.5-1.5S14.5,4,14.5,4.9L14.5,4.9z"/>
	<polygon points="18,13.6 18,16 16.4,16 16.4,13.6 14,13.6 14,12 16.4,12 16.4,9.6 18,9.6 18,12 20.4,12 20.4,13.6 	"/>
	<path d="M18,13.6"/>
</g>
</svg>
