<?xml version="1.0" encoding="utf-8"?>
<!-- Generator: Adobe Illustrator 21.1.0, SVG Export Plug-In . SVG Version: 6.00 Build 0)  -->
<svg version="1.1" id="Capa_1" xmlns="http://www.w3.org/2000/svg" xmlns:xlink="http://www.w3.org/1999/xlink" x="0px" y="0px"
	 viewBox="0 0 10 10" style="enable-background:new 0 0 10 10;" xml:space="preserve">
<style type="text/css">
	svg#Capa_1 {fill: #FFFFFF;}

</style>
<g>
	<g>
		<path class="st0" d="M5,10c-2.8,0-5-2.2-5-5c0-2.8,2.2-5,5-5s5,2.2,5,5C10,7.8,7.8,10,5,10z M5,0.6c-2.4,0-4.4,2-4.4,4.4
			c0,2.4,2,4.4,4.4,4.4s4.4-2,4.4-4.4C9.4,2.6,7.4,0.6,5,0.6z"/>
	</g>
	<g>
		<path class="st0" d="M6.5,6.8c-0.1,0-0.1,0-0.2-0.1L4.8,5.2C4.7,5.1,4.7,5.1,4.7,5V1.8c0-0.2,0.1-0.3,0.3-0.3
			c0.2,0,0.3,0.1,0.3,0.3v3.1l1.4,1.4c0.1,0.1,0.1,0.3,0,0.4C6.7,6.8,6.6,6.8,6.5,6.8z"/>
	</g>
</g>
</svg>
