<?xml version="1.0" encoding="utf-8"?>
<!-- Generator: Adobe Illustrator 21.1.0, SVG Export Plug-In . SVG Version: 6.00 Build 0)  -->
<svg version="1.1" id="Layer_1" xmlns="http://www.w3.org/2000/svg" xmlns:xlink="http://www.w3.org/1999/xlink" x="0px" y="0px"
	 viewBox="0 0 23 20" style="enable-background:new 0 0 23 20;" xml:space="preserve">
<style type="text/css">
	svg#Layer_1 {fill: #0082c2;}
	.st0{fill:#FFFFFF;}
</style>
<g>
	<g>
		<path d="M22.1,20h-18c-0.5,0-0.9-0.4-0.9-0.9V0.9C3.2,0.4,3.6,0,4.1,0h18C22.6,0,23,0.4,23,0.9V19C23,19.6,22.6,20,22.1,20z
			 M4.1,0.8C4,0.8,4,0.8,4,0.9V19c0,0.1,0,0.1,0.1,0.1h18c0.1,0,0.1,0,0.1-0.1V0.9c0-0.1,0-0.1-0.1-0.1C22.1,0.8,4.1,0.8,4.1,0.8z"
			/>
	</g>
	<g>
		<g>
			<rect x="5.4" y="9.2" width="6.7" height="1.4"/>
		</g>
		<g>
			<rect x="5.4" y="12.1" width="6.7" height="1.4"/>
		</g>
		<g>
			<rect x="5.4" y="15.1" width="6.7" height="1.4"/>
		</g>
		<g>
			<rect x="14.1" y="15.1" width="6.7" height="1.4"/>
		</g>
		<g>
			<rect x="14.1" y="12.1" width="6.7" height="1.4"/>
		</g>
		<g>
			<rect x="14.1" y="9.2" width="6.7" height="1.4"/>
		</g>
	</g>
	<g>
		<g>
			<rect x="5.4" y="2.6" width="15.3" height="5.3"/>
		</g>
		<g>
			<path class="st0" d="M7.6,6.7V3.5H8l1,1.6c0.2,0.4,0.4,0.7,0.6,1l0,0c0-0.4,0-0.8,0-1.3V3.5h0.3v3.2H9.5l-1-1.6
				C8.3,4.7,8.1,4.3,7.9,4l0,0c0,0.4,0,0.8,0,1.3v1.4C7.9,6.7,7.6,6.7,7.6,6.7z"/>
			<path class="st0" d="M12.3,5.2h-1.2v1.2h1.4v0.3h-1.8V3.5h1.7v0.3h-1.3v1h1.2C12.3,4.8,12.3,5.2,12.3,5.2z"/>
			<path class="st0" d="M13.5,6.7l-0.8-3.2h0.4l0.4,1.6c0.1,0.4,0.2,0.8,0.2,1.1l0,0c0.1-0.3,0.2-0.7,0.3-1.1l0.4-1.6h0.5l0.4,1.6
				c0.1,0.4,0.2,0.8,0.2,1.1l0,0c0.1-0.4,0.2-0.7,0.3-1.1l0.4-1.6h0.4l-0.9,3.2h-0.4L14.9,5c-0.1-0.4-0.2-0.7-0.2-1l0,0
				c-0.1,0.3-0.1,0.6-0.2,1L14,6.7H13.5z"/>
			<path class="st0" d="M16.9,6.2c0.2,0.1,0.5,0.2,0.7,0.2c0.4,0,0.7-0.2,0.7-0.5s-0.2-0.5-0.6-0.6c-0.5-0.3-0.8-0.5-0.8-1
				s0.4-0.9,1-0.9c0.3,0,0.6,0.1,0.7,0.2l-0.1,0.3c-0.1-0.1-0.3-0.2-0.6-0.2c-0.4,0-0.6,0.3-0.6,0.5c0,0.3,0.2,0.4,0.6,0.6
				c0.5,0.2,0.8,0.5,0.8,0.9c0,0.5-0.4,0.9-1.1,0.9c-0.3,0-0.6-0.1-0.8-0.2L16.9,6.2z"/>
		</g>
	</g>
	<g>
		<path d="M3.2,18c0-0.1-2.8-12-3.1-13C0,4.5,0,4.2,0.2,4c0.2-0.2,0.5-0.2,0.7-0.2h1.3v0.6H0.8H0.6c0,0,0,0.1,0.1,0.4
			c0.3,1,3,12.5,3.1,13L3.2,18z"/>
	</g>
</g>
</svg>
