<?xml version="1.0" encoding="utf-8"?>
<!-- Generator: Adobe Illustrator 21.1.0, SVG Export Plug-In . SVG Version: 6.00 Build 0)  -->
<svg version="1.1" id="Layer_1" xmlns="http://www.w3.org/2000/svg" xmlns:xlink="http://www.w3.org/1999/xlink" x="0px" y="0px"
	 viewBox="0 0 15.1 13" style="enable-background:new 0 0 15.1 13;" xml:space="preserve">
	 <style>
	 svg#Layer_1 {fill: #FFFFFF}
	 </style>
<g>
	<g>
		<path d="M14.5,13c-0.3,0-0.5-0.2-0.5-0.5c0-2.2-1.8-4-4-4H5c-2.2,0-4,1.8-4,4c0,0.3-0.2,0.5-0.5,0.5S0,12.8,0,12.5
			c0-2.8,2.3-5,5-5h5c2.8,0,5,2.3,5,5C15.1,12.8,14.8,13,14.5,13z"/>
	</g>
	<g>
		<path d="M7.5,7.1C5.6,7.1,4,5.5,4,3.6S5.6,0,7.5,0s3.6,1.6,3.6,3.6S9.5,7.1,7.5,7.1z M7.5,1.1C6.2,1.1,5,2.2,5,3.6
			s1.1,2.5,2.5,2.5S10,5,10,3.6S8.9,1.1,7.5,1.1z"/>
	</g>
</g>
</svg>
