<?xml version="1.0" encoding="utf-8"?>
<!-- Generator: Adobe Illustrator 21.1.0, SVG Export Plug-In . SVG Version: 6.00 Build 0)  -->
<svg version="1.1" id="Layer_1" xmlns="http://www.w3.org/2000/svg" xmlns:xlink="http://www.w3.org/1999/xlink" x="0px" y="0px"
	 viewBox="0 0 104 90" style="enable-background:new 0 0 104 90;" xml:space="preserve">
	<style>
	 svg#Layer_1 {fill: #566f7b;}
	 </style>
<path d="M78.1,0.1h-52l-26,45l26,45h52l26-45L78.1,0.1z M25.1,57.1c-1,0-1.5-0.4-1.5-1.1c0-0.3,0.1-0.7,0.3-1.1l1.7,2.2
	C25.4,57.1,25.3,57.1,25.1,57.1z M63.3,65.5H29.7v-1.6c0-2.1,1.2-4.1,3.1-5l7.6-3.8c1.3-0.6,2.1-1.9,2.1-3.3v-3.3l-0.2-0.2
	c-0.2-0.2-0.4-0.5-0.7-0.9c-1-1.4-1.7-2.9-2.3-4.6l-0.1-0.4l-0.4-0.1c-0.7-0.2-1.1-0.8-1.1-1.5v-3.2c0-0.4,0.2-0.9,0.5-1.2l0.3-0.2
	l0-5.1c0,0-0.3-2.3,1.3-4c1.3-1.5,3.6-2.3,6.7-2.3c3.1,0,5.4,0.8,6.7,2.3c1.3,1.5,1.3,3.2,1.3,3.8l0,0v5.3l0.3,0.2
	c0.3,0.3,0.5,0.7,0.5,1.2v3.2c0,0.5-0.3,1-0.7,1.3l-0.3,0.2l-0.1,0.3c-0.1,0.3-0.1,0.5-0.2,0.8c0,0,0,0,0,0.1l0,0.1
	c-0.1,0.2-0.2,0.5-0.2,0.7c0,0.1-0.1,0.2-0.1,0.3c0,0,0,0.1,0,0.1c0,0.1-0.1,0.2-0.1,0.3c0,0,0,0.1,0,0.1c-0.1,0.2-0.2,0.4-0.3,0.6
	c0,0,0,0,0,0c-0.2,0.4-0.4,0.7-0.6,1c0,0,0,0,0,0c-0.1,0.1-0.2,0.3-0.2,0.4c0,0,0,0,0,0c-0.2,0.3-0.3,0.5-0.4,0.6c0,0,0,0,0,0
	c-0.1,0.1-0.1,0.1-0.1,0.2c0,0,0,0,0,0c-0.1,0.1-0.1,0.2-0.1,0.2l0,0l-0.2,0.2v3.2c0,1.4,0.7,2.6,1.9,3.3l7.1,3.9
	c1.8,1,2.9,2.9,2.9,4.9V65.5z M74.5,65.5h-9.6v-1.8c0-2.6-1.4-5.1-3.8-6.3l-4.5-2.5l-0.2-0.3l-0.4,0L54,53.5
	c-0.7-0.4-1.1-1.1-1.1-1.9V49c0,0,0-0.1,0.1-0.1c0,0,0.1-0.1,0.1-0.1c0.1-0.2,0.3-0.4,0.5-0.7c0,0,0-0.1,0.1-0.1
	c0.1-0.2,0.2-0.3,0.3-0.5c0-0.1,0.1-0.1,0.1-0.2c0.1-0.2,0.2-0.3,0.3-0.5c0.1-0.1,0.1-0.2,0.1-0.3c0,0,0-0.1,0-0.1
	c0.1-0.2,0.2-0.3,0.2-0.5c0,0,0-0.1,0.1-0.1l0-0.1c0,0,0-0.1,0-0.1c0.1-0.2,0.1-0.3,0.2-0.5c0-0.1,0.1-0.1,0.1-0.2
	c0.1-0.2,0.1-0.3,0.2-0.4c0-0.1,0.1-0.2,0.1-0.3c0,0,0-0.1,0-0.1l0.1-0.2c0.1-0.2,0.1-0.4,0.2-0.5c0,0,0,0,0,0
	c0.4-0.3,0.7-0.7,0.9-1.1c0,0,0,0,0,0c0.1-0.1,0.1-0.3,0.1-0.4c0-0.1,0.1-0.2,0.1-0.3c0.1-0.2,0.1-0.5,0.1-0.7v-3.2
	c0-0.8-0.3-1.5-0.8-2.1v-3.8c1.3-0.9,2.9-1.3,4.8-1.3c6.8,0,7.2,5.4,7.2,5.6v4.3l0.3,0.2c0.3,0.3,0.5,0.7,0.5,0.9v2.8
	c0,0.4-0.2,0.8-0.6,1.1l-0.3,0.2L68,45.8c-0.6,2.7-2.8,4.7-2.8,4.8L65,50.8v2.9c0,1.2,0.7,2.3,1.7,2.9l5.3,3.3
	c1.6,0.9,2.5,2.4,2.5,4.2V65.5z"/>
</svg>
