<?xml version="1.0" encoding="utf-8"?>
<!-- Generator: Adobe Illustrator 21.1.0, SVG Export Plug-In . SVG Version: 6.00 Build 0)  -->
<svg version="1.1" id="Layer_1" xmlns="http://www.w3.org/2000/svg" xmlns:xlink="http://www.w3.org/1999/xlink" x="0px" y="0px"
	 viewBox="0 0 15.6 10" style="enable-background:new 0 0 15.6 10;" xml:space="preserve">
	 <style type="text/css">
	svg#Layer_1{fill:#FFFFFF;}
</style>
<g>
	<path d="M15.2,3.6l-0.7-0.3C14.4,1.5,12.8,0,11,0H1.9C0.9,0,0,0.9,0,2v6.2c0,0.3,0.3,0.5,0.5,0.5h0.9C1.7,9.5,2.4,10,3.2,10
		S4.8,9.5,5,8.7h4C9.2,9.5,9.9,10,10.8,10c0.8,0,1.5-0.6,1.8-1.3H15c0.3,0,0.5-0.3,0.5-0.5V4.1C15.6,3.9,15.4,3.7,15.2,3.6z
		 M3.2,9.2c-0.6,0-1.1-0.5-1.1-1.1c0-0.6,0.5-1.1,1.1-1.1s1.1,0.5,1.1,1.1C4.3,8.8,3.8,9.2,3.2,9.2z M10.8,9.2
		c-0.6,0-1.1-0.5-1.1-1.1c0-0.6,0.5-1.1,1.1-1.1c0.6,0,1.1,0.5,1.1,1.1C11.8,8.8,11.3,9.2,10.8,9.2z M12.5,7.6
		c-0.2-0.8-0.9-1.3-1.8-1.3C9.9,6.3,9.2,6.9,9,7.6H5C4.8,6.9,4.1,6.3,3.2,6.3S1.7,6.9,1.5,7.6H1.1V5.9h5.4c0.2,0,0.4-0.2,0.4-0.4
		c0-0.2-0.2-0.4-0.4-0.4H1.1V2c0-0.5,0.4-0.9,0.9-0.9H11c1.4,0,2.5,1.1,2.5,2.5c0,0.2,0.1,0.4,0.3,0.5l0.7,0.3v0.7h-3.3
		c-0.2,0-0.4,0.2-0.4,0.4c0,0.2,0.2,0.4,0.4,0.4h3.3v1.8H12.5z"/>
	<path d="M10.2,5.1H7.4C7.1,5.1,7,5.3,7,5.5c0,0.2,0.2,0.4,0.4,0.4h2.8c0.2,0,0.4-0.2,0.4-0.4C10.6,5.3,10.4,5.1,10.2,5.1z"/>
	<path d="M12.6,4.2c0-1.6-1.3-2.9-2.9-2.9h-8c-0.2,0-0.4,0.2-0.4,0.4v2.5c0,0.2,0.2,0.4,0.4,0.4h10.4C12.4,4.6,12.6,4.4,12.6,4.2z
		 M6.9,2.1v1.7H4.4V2.1H6.9z M2.2,2.1h1.4v1.7H2.2V2.1z M7.7,3.8V2.1h2.1c1,0,1.8,0.7,2,1.7H7.7z"/>
	<circle cx="10.8" cy="8.2" r="0.4"/>
	<circle cx="3.2" cy="8.2" r="0.4"/>
</g>
</svg>
