<?xml version="1.0" encoding="utf-8"?>
<!-- Generator: Adobe Illustrator 21.1.0, SVG Export Plug-In . SVG Version: 6.00 Build 0)  -->
<svg version="1.1" id="Layer_1" xmlns="http://www.w3.org/2000/svg" xmlns:xlink="http://www.w3.org/1999/xlink" x="0px" y="0px"
	 viewBox="0 0 17 10" style="enable-background:new 0 0 17 10;" xml:space="preserve">
	 <style>
	 svg#Layer_1 {fill: #FFFFFF}
	 </style>
<g>
	<path d="M15,0H2C0.9,0,0,0.9,0,2v6.1C0,9.2,0.9,10,2,10H15c1.1,0,2-0.9,2-1.9V2C17,0.9,16.1,0,15,0z M15.8,8.1
		c0,0.4-0.4,0.8-0.8,0.8H2c-0.4,0-0.8-0.3-0.8-0.8V2c0-0.4,0.4-0.8,0.8-0.8H15c0.4,0,0.8,0.3,0.8,0.8V8.1z"/>
	<path d="M8.6,4.3V2.2c0.1,0,0.3,0,0.4,0c0.1,0,0.2,0.1,0.3,0.1c0.1,0.1,0.2,0.2,0.2,0.2c0,0,0,0.1-0.1,0.3C9.3,3,9.2,3.1,9.2,3.2
		c0,0.1,0,0.2,0.1,0.3c0.1,0.1,0.2,0.1,0.3,0.1c0.1,0,0.2,0,0.3-0.1c0.1-0.1,0.1-0.2,0.1-0.4c0-0.2-0.1-0.4-0.2-0.6
		C9.8,2.3,9.6,2.2,9.3,2.1C9,2,8.8,1.9,8.6,1.9V1.6H8.3v0.4c-0.2,0-0.4,0-0.6,0.1C7.5,2.1,7.3,2.3,7.1,2.4C6.9,2.7,6.7,3,6.7,3.4
		c0,0.8,0.5,1.3,1.6,1.6v2.2c-0.2,0-0.3,0-0.5,0c-0.1,0-0.3-0.1-0.4-0.1C7.3,7,7.2,7,7.2,6.9c0,0,0.1-0.1,0.2-0.2
		c0.1-0.1,0.2-0.2,0.2-0.4c0-0.1,0-0.3-0.1-0.3C7.4,5.8,7.3,5.8,7.2,5.8C7,5.8,6.9,5.8,6.8,6C6.7,6.1,6.7,6.2,6.7,6.4
		c0,0.2,0.1,0.4,0.2,0.6C7,7.1,7.2,7.3,7.4,7.4C7.7,7.5,8,7.6,8.3,7.6v1h0.3v-1c0.3,0,0.5,0,0.7-0.1c0,0,0.1,0,0.1-0.1
		c0.1,0,0.1-0.1,0.2-0.1c0.1-0.1,0.2-0.1,0.3-0.2c0.3-0.3,0.4-0.6,0.4-1c0-0.4-0.1-0.7-0.4-1C9.7,4.8,9.2,4.5,8.6,4.3z M8.3,4.2
		C7.8,4,7.6,3.9,7.4,3.7C7.3,3.5,7.2,3.4,7.2,3.2c0-0.3,0.1-0.5,0.3-0.6c0.1-0.1,0.2-0.2,0.4-0.2c0.1,0,0.3-0.1,0.5-0.1V4.2z M9.5,7
		C9.3,7.1,9,7.2,8.6,7.3V5.2c0.5,0.2,0.8,0.3,1,0.5c0.2,0.2,0.2,0.4,0.2,0.6C9.8,6.5,9.7,6.8,9.5,7z"/>
</g>
</svg>
