<?xml version="1.0" encoding="utf-8"?>
<!-- Generator: Adobe Illustrator 21.1.0, SVG Export Plug-In . SVG Version: 6.00 Build 0)  -->
<svg version="1.1" id="Layer_1" xmlns="http://www.w3.org/2000/svg" xmlns:xlink="http://www.w3.org/1999/xlink" x="0px" y="0px"
	 viewBox="0 0 13 10" style="enable-background:new 0 0 13 10;" xml:space="preserve">
	 <style>
	 svg#Layer_1 {fill: #FFFFFF}
	 </style>
<path d="M11.2,1.7h-2c0,0,0,0,0,0V1.1c0-0.6-0.5-1-1-1H4.7c-0.6,0-1,0.5-1,1v0.7c0,0,0,0,0,0H1.8C0.8,1.7,0,2.5,0,3.6v4.6
	c0,1,0.8,1.8,1.8,1.8h9.3c1,0,1.8-0.8,1.8-1.8V3.6C13,2.5,12.2,1.7,11.2,1.7z M9.8,2.7V9H3.1V2.7h1.6h3.5H9.8z M4.7,1.7
	C4.7,1.7,4.7,1.7,4.7,1.7l0-0.7l3.5,0l0,0.7L4.7,1.7z M1,8.2V3.6c0-0.4,0.4-0.8,0.8-0.8h0.2V9H1.8C1.4,9,1,8.6,1,8.2z M12,8.2
	C12,8.6,11.6,9,11.2,9h-0.3V2.7h0.3c0.4,0,0.8,0.4,0.8,0.8V8.2z"/>
</svg>
